<svg viewBox="0 0 889.5 400" xmlns="http://www.w3.org/2000/svg"><g><g><g><g><g><line x1="82.734375" y1="377" x2="77.734375" y2="377" style="visibility: inherit;" fill="rgb(0, 0, 0)" stroke="rgb(204, 204, 204)" stroke-width="1px"></line><line x1="82.734375" y1="351.8666666666667" x2="77.734375" y2="351.8666666666667" style="visibility: inherit;" fill="rgb(0, 0, 0)" stroke="rgb(204, 204, 204)" stroke-width="1px"></line><line x1="82.734375" y1="326.73333333333335" x2="77.734375" y2="326.73333333333335" style="visibility: inherit;" fill="rgb(0, 0, 0)" stroke="rgb(204, 204, 204)" stroke-width="1px"></line><line x1="82.734375" y1="301.6" x2="77.734375" y2="301.6" style="visibility: inherit;" fill="rgb(0, 0, 0)" stroke="rgb(204, 204, 204)" stroke-width="1px"></line><line x1="82.734375" y1="276.4666666666667" x2="77.734375" y2="276.4666666666667" style="visibility: inherit;" fill="rgb(0, 0, 0)" stroke="rgb(204, 204, 204)" stroke-width="1px"></line><line x1="82.734375" y1="251.33333333333337" x2="77.734375" y2="251.33333333333337" style="visibility: inherit;" fill="rgb(0, 0, 0)" stroke="rgb(204, 204, 204)" stroke-width="1px"></line><line x1="82.734375" y1="226.2" x2="77.734375" y2="226.2" style="visibility: inherit;" fill="rgb(0, 0, 0)" stroke="rgb(204, 204, 204)" stroke-width="1px"></line><line x1="82.734375" y1="201.06666666666666" x2="77.734375" y2="201.06666666666666" style="visibility: inherit;" fill="rgb(0, 0, 0)" stroke="rgb(204, 204, 204)" stroke-width="1px"></line><line x1="82.734375" y1="175.93333333333334" x2="77.734375" y2="175.93333333333334" style="visibility: inherit;" fill="rgb(0, 0, 0)" stroke="rgb(204, 204, 204)" stroke-width="1px"></line><line x1="82.734375" y1="150.8" x2="77.734375" y2="150.8" style="visibility: inherit;" fill="rgb(0, 0, 0)" stroke="rgb(204, 204, 204)" stroke-width="1px"></line><line x1="82.734375" y1="125.66666666666669" x2="77.734375" y2="125.66666666666669" style="visibility: inherit;" fill="rgb(0, 0, 0)" stroke="rgb(204, 204, 204)" stroke-width="1px"></line><line x1="82.734375" y1="100.53333333333336" x2="77.734375" y2="100.53333333333336" style="visibility: inherit;" fill="rgb(0, 0, 0)" stroke="rgb(204, 204, 204)" stroke-width="1px"></line><line x1="82.734375" y1="75.39999999999998" x2="77.734375" y2="75.39999999999998" style="visibility: inherit;" fill="rgb(0, 0, 0)" stroke="rgb(204, 204, 204)" stroke-width="1px"></line><line x1="82.734375" y1="50.26666666666666" x2="77.734375" y2="50.26666666666666" style="visibility: inherit;" fill="rgb(0, 0, 0)" stroke="rgb(204, 204, 204)" stroke-width="1px"></line><line x1="82.734375" y1="25.13333333333333" x2="77.734375" y2="25.13333333333333" style="visibility: inherit;" fill="rgb(0, 0, 0)" stroke="rgb(204, 204, 204)" stroke-width="1px"></line><line x1="82.734375" y1="0" x2="77.734375" y2="0" style="visibility: inherit;" fill="rgb(0, 0, 0)" stroke="rgb(204, 204, 204)" stroke-width="1px"></line></g><g transform="translate(72.734375, 0)"><text x="0" y="377" dx="0em" dy="0.3em" style="text-anchor: end; visibility: hidden; font-family: Roboto, sans-serif; font-size: 12px; font-weight: 200;" fill="rgb(33, 33, 33)" stroke="none" stroke-width="1px">-1.8e+3</text><text x="0" y="351.8666666666667" dx="0em" dy="0.3em" style="text-anchor: end; visibility: inherit; font-family: Roboto, sans-serif; font-size: 12px; font-weight: 200;" fill="rgb(33, 33, 33)" stroke="none" stroke-width="1px">-1.6e+3</text><text x="0" y="326.73333333333335" dx="0em" dy="0.3em" style="text-anchor: end; visibility: inherit; font-family: Roboto, sans-serif; font-size: 12px; font-weight: 200;" fill="rgb(33, 33, 33)" stroke="none" stroke-width="1px">-1.4e+3</text><text x="0" y="301.6" dx="0em" dy="0.3em" style="text-anchor: end; visibility: inherit; font-family: Roboto, sans-serif; font-size: 12px; font-weight: 200;" fill="rgb(33, 33, 33)" stroke="none" stroke-width="1px">-1.2e+3</text><text x="0" y="276.4666666666667" dx="0em" dy="0.3em" style="text-anchor: end; visibility: inherit; font-family: Roboto, sans-serif; font-size: 12px; font-weight: 200;" fill="rgb(33, 33, 33)" stroke="none" stroke-width="1px">-1e+3</text><text x="0" y="251.33333333333337" dx="0em" dy="0.3em" style="text-anchor: end; visibility: inherit; font-family: Roboto, sans-serif; font-size: 12px; font-weight: 200;" fill="rgb(33, 33, 33)" stroke="none" stroke-width="1px">-800</text><text x="0" y="226.2" dx="0em" dy="0.3em" style="text-anchor: end; visibility: inherit; font-family: Roboto, sans-serif; font-size: 12px; font-weight: 200;" fill="rgb(33, 33, 33)" stroke="none" stroke-width="1px">-600</text><text x="0" y="201.06666666666666" dx="0em" dy="0.3em" style="text-anchor: end; visibility: inherit; font-family: Roboto, sans-serif; font-size: 12px; font-weight: 200;" fill="rgb(33, 33, 33)" stroke="none" stroke-width="1px">-400</text><text x="0" y="175.93333333333334" dx="0em" dy="0.3em" style="text-anchor: end; visibility: inherit; font-family: Roboto, sans-serif; font-size: 12px; font-weight: 200;" fill="rgb(33, 33, 33)" stroke="none" stroke-width="1px">-200</text><text x="0" y="150.8" dx="0em" dy="0.3em" style="text-anchor: end; visibility: inherit; font-family: Roboto, sans-serif; font-size: 12px; font-weight: 200;" fill="rgb(33, 33, 33)" stroke="none" stroke-width="1px">0</text><text x="0" y="125.66666666666669" dx="0em" dy="0.3em" style="text-anchor: end; visibility: inherit; font-family: Roboto, sans-serif; font-size: 12px; font-weight: 200;" fill="rgb(33, 33, 33)" stroke="none" stroke-width="1px">200</text><text x="0" y="100.53333333333336" dx="0em" dy="0.3em" style="text-anchor: end; visibility: inherit; font-family: Roboto, sans-serif; font-size: 12px; font-weight: 200;" fill="rgb(33, 33, 33)" stroke="none" stroke-width="1px">400</text><text x="0" y="75.39999999999998" dx="0em" dy="0.3em" style="text-anchor: end; visibility: inherit; font-family: Roboto, sans-serif; font-size: 12px; font-weight: 200;" fill="rgb(33, 33, 33)" stroke="none" stroke-width="1px">600</text><text x="0" y="50.26666666666666" dx="0em" dy="0.3em" style="text-anchor: end; visibility: inherit; font-family: Roboto, sans-serif; font-size: 12px; font-weight: 200;" fill="rgb(33, 33, 33)" stroke="none" stroke-width="1px">800</text><text x="0" y="25.13333333333333" dx="0em" dy="0.3em" style="text-anchor: end; visibility: inherit; font-family: Roboto, sans-serif; font-size: 12px; font-weight: 200;" fill="rgb(33, 33, 33)" stroke="none" stroke-width="1px">1e+3</text><text x="0" y="0" dx="0em" dy="0.3em" style="text-anchor: end; visibility: hidden; font-family: Roboto, sans-serif; font-size: 12px; font-weight: 200;" fill="rgb(33, 33, 33)" stroke="none" stroke-width="1px">1.2e+3</text></g><line x1="82.734375" y1="0" x2="82.734375" y2="377" fill="rgb(0, 0, 0)" stroke="rgb(204, 204, 204)" stroke-width="1px"></line></g></g><g transform="translate(82, 0)" clip-path="url(#clip_0)"><clipPath id="clip_0"><rect width="806" height="377"></rect></clipPath><g><g><g><line x1="0" y1="0" x2="0" y2="377" fill="rgb(0, 0, 0)" stroke="rgb(66, 66, 66)" stroke-width="1px" opacity="0.25"></line><line x1="100.845703125" y1="0" x2="100.845703125" y2="377" fill="rgb(0, 0, 0)" stroke="rgb(66, 66, 66)" stroke-width="1px" opacity="0.25"></line><line x1="201.69140625" y1="0" x2="201.69140625" y2="377" fill="rgb(0, 0, 0)" stroke="rgb(66, 66, 66)" stroke-width="1px" opacity="0.25"></line><line x1="302.537109375" y1="0" x2="302.537109375" y2="377" fill="rgb(0, 0, 0)" stroke="rgb(66, 66, 66)" stroke-width="1px" opacity="0.25"></line><line x1="403.3828125" y1="0" x2="403.3828125" y2="377" fill="rgb(0, 0, 0)" stroke="rgb(66, 66, 66)" stroke-width="1px" opacity="0.25"></line><line x1="504.228515625" y1="0" x2="504.228515625" y2="377" fill="rgb(0, 0, 0)" stroke="rgb(66, 66, 66)" stroke-width="1px" opacity="0.25"></line><line x1="605.07421875" y1="0" x2="605.07421875" y2="377" fill="rgb(0, 0, 0)" stroke="rgb(66, 66, 66)" stroke-width="1px" opacity="0.25"></line><line x1="705.919921875" y1="0" x2="705.919921875" y2="377" fill="rgb(0, 0, 0)" stroke="rgb(66, 66, 66)" stroke-width="1px" opacity="0.25"></line><line x1="806.765625" y1="0" x2="806.765625" y2="377" fill="rgb(0, 0, 0)" stroke="rgb(66, 66, 66)" stroke-width="1px" opacity="0.25"></line></g><g><line x1="0" y1="377" x2="806.765625" y2="377" fill="rgb(0, 0, 0)" stroke="rgb(66, 66, 66)" stroke-width="1px" opacity="0.25"></line><line x1="0" y1="351.8666666666667" x2="806.765625" y2="351.8666666666667" fill="rgb(0, 0, 0)" stroke="rgb(66, 66, 66)" stroke-width="1px" opacity="0.25"></line><line x1="0" y1="326.73333333333335" x2="806.765625" y2="326.73333333333335" fill="rgb(0, 0, 0)" stroke="rgb(66, 66, 66)" stroke-width="1px" opacity="0.25"></line><line x1="0" y1="301.6" x2="806.765625" y2="301.6" fill="rgb(0, 0, 0)" stroke="rgb(66, 66, 66)" stroke-width="1px" opacity="0.25"></line><line x1="0" y1="276.4666666666667" x2="806.765625" y2="276.4666666666667" fill="rgb(0, 0, 0)" stroke="rgb(66, 66, 66)" stroke-width="1px" opacity="0.25"></line><line x1="0" y1="251.33333333333337" x2="806.765625" y2="251.33333333333337" fill="rgb(0, 0, 0)" stroke="rgb(66, 66, 66)" stroke-width="1px" opacity="0.25"></line><line x1="0" y1="226.2" x2="806.765625" y2="226.2" fill="rgb(0, 0, 0)" stroke="rgb(66, 66, 66)" stroke-width="1px" opacity="0.25"></line><line x1="0" y1="201.06666666666666" x2="806.765625" y2="201.06666666666666" fill="rgb(0, 0, 0)" stroke="rgb(66, 66, 66)" stroke-width="1px" opacity="0.25"></line><line x1="0" y1="175.93333333333334" x2="806.765625" y2="175.93333333333334" fill="rgb(0, 0, 0)" stroke="rgb(66, 66, 66)" stroke-width="1px" opacity="0.25"></line><line x1="0" y1="150.8" x2="806.765625" y2="150.8" fill="rgb(0, 0, 0)" stroke="rgb(66, 66, 66)" stroke-width="1px" opacity="0.25"></line><line x1="0" y1="125.66666666666669" x2="806.765625" y2="125.66666666666669" fill="rgb(0, 0, 0)" stroke="rgb(66, 66, 66)" stroke-width="1px" opacity="0.25"></line><line x1="0" y1="100.53333333333336" x2="806.765625" y2="100.53333333333336" fill="rgb(0, 0, 0)" stroke="rgb(66, 66, 66)" stroke-width="1px" opacity="0.25"></line><line x1="0" y1="75.39999999999998" x2="806.765625" y2="75.39999999999998" fill="rgb(0, 0, 0)" stroke="rgb(66, 66, 66)" stroke-width="1px" opacity="0.25"></line><line x1="0" y1="50.26666666666666" x2="806.765625" y2="50.26666666666666" fill="rgb(0, 0, 0)" stroke="rgb(66, 66, 66)" stroke-width="1px" opacity="0.25"></line><line x1="0" y1="25.13333333333333" x2="806.765625" y2="25.13333333333333" fill="rgb(0, 0, 0)" stroke="rgb(66, 66, 66)" stroke-width="1px" opacity="0.25"></line><line x1="0" y1="0" x2="806.765625" y2="0" fill="rgb(0, 0, 0)" stroke="rgb(66, 66, 66)" stroke-width="1px" opacity="0.25"></line></g></g></g><g><g><line x1="0" y1="150.8" x2="806.765625" y2="150.8" fill="rgb(0, 0, 0)" stroke="rgb(153, 153, 153)" stroke-width="1.5px"></line></g></g><g><g><line x1="100.845703125" y1="0" x2="100.845703125" y2="377" fill="rgb(0, 0, 0)" stroke="rgb(153, 153, 153)" stroke-width="1.5px"></line></g></g><g><g><g><g><g><path stroke="rgb(255, 112, 67)" stroke-width="2px" d="M101.2490859375,156.69751465352377L102.66092578125,160.70325650246937L103.46769140625,156.25672365778317L103.56853710937499,156.79105461156485L104.87953125,163.552059308409L105.585451171875,247.67317938153658L105.68629687500001,213.4934971020486L107.09813671875001,225.69062955809582L107.19898242187499,274.5193508173446L107.602365234375,241.93084140445282L108.005748046875,209.10115923765727L108.61082226562499,193.10645533182017L109.11505078125,253.3757423584943L109.820970703125,213.426004384983L110.829427734375,272.7100959846165L111.232810546875,306.89592268664774L111.636193359375,329.1651295714918L113.048033203125,339.9137479202859L113.451416015625,346.55209402146534L113.55226171874999,349.8537695915619L113.753953125,350.6163362958253L113.95564453124999,273.45252587121337L114.56071874999999,303.636227346317L115.36748437499999,243.5470248682189L115.670021484375,287.2750100253578L116.678478515625,318.02253056773117L116.981015625,275.8124924852626L117.18270703124999,308.9507730840228L117.3843984375,327.75102500926016L118.1911640625,271.08044261795607L118.69539257812501,237.59181899409398L120.10723242187501,282.957509866984L121.317380859375,243.34405213648012L121.51907226562501,282.9586591258776L122.32583789062501,234.18759322211906L123.939369140625,203.92270137051648L125.4520546875,185.89920500642296L125.55290039062501,246.97461333480527L126.86389453125,285.68824684689946L126.96474023437499,234.6233745647404L128.17488867187498,216.11995829740852L128.47742578125,201.02759686856177L129.28419140625002,195.43086432069293L129.586728515625,179.53736117897714L130.09095703125,172.21086724882036L130.595185546875,227.5851067459749L131.9061796875,198.43035668285668L132.7129453125,187.1981161070367L132.91463671875002,177.68591727965378L133.015482421875,179.4544944840175L133.31801953125,173.51665022635177L135.637470703125,168.90224812835132L135.73831640625002,216.52378299167728L136.94846484375,192.24991933213101L137.55353906250002,178.26032518020244L137.654384765625,168.55227734765026L137.75523046875,169.097519612936L138.96537890624998,166.22674705523676L139.77214453124998,166.71360729686282L140.17552734375,165.95404937465898L140.37721875,164.3072616936837L140.881447265625,166.10951486940036L141.38567578125,208.46492986076825L141.58736718749998,237.78062280903927L142.696669921875,205.28685989452993L143.301744140625,189.9972466414705L143.40258984374998,178.9632687866808L144.8144296875,174.83567990604166L144.915275390625,167.24356094553744L145.116966796875,168.60208704543118L145.82288671875,172.30333513334597L146.4279609375,164.07028810355186L147.33557226562502,159.42777197279804L147.738955078125,156.35047024729016L148.04149218749998,157.4415619986345L148.24318359375,156.6944720741604L148.64656640625,156.21007591366532L148.747412109375,156.37977407043633L149.251640625,157.40042941113387L149.352486328125,155.31156271692163L149.95756054687502,155.3292247171484L152.27701171875,195.29176720333592L152.478703125,184.87772310886677L152.57954882812498,213.05619771623157L152.68039453125,231.85413935727797L152.982931640625,208.0857258344189L153.184623046875,199.1460597194013L154.596462890625,186.18268995456557L154.69730859375,209.74071411922372L154.899,188.67284317134298L155.10069140625,176.16165778574037L155.3023828125,167.05822706890515L155.705765625,163.22682671477244L155.90745703125,204.87291610536084L156.51253125,183.97393419423764L156.9159140625,180.33585300108032L157.52098828125,210.86228423717162L157.7226796875,190.56029923289546L158.12606250000002,181.25165540440196L159.73959375,169.09647547194547L160.34466796875,163.00918036449664L160.74805078125002,159.47060741379687L160.94974218750002,157.5827756080478L162.664119140625,159.8413992688407L162.76496484375002,163.60158104283116L163.57173046875002,164.46244840495487L163.672576171875,172.53930566813568L164.17680468749998,168.8900806878687L164.277650390625,164.1190667324234L165.084416015625,164.03025894611093L165.689490234375,162.7096856909494L165.7903359375,161.8921083099147L166.294564453125,192.53613357318838L167.20217578125,184.34561112739286L168.109787109375,171.83608954122252L168.91655273437502,164.92421736049604L169.0173984375,159.88345925044985L170.6309296875,157.42111732298514L170.83262109375,155.4409767087681L173.55545507812502,163.23405718818404L173.757146484375,158.6252097799565L173.958837890625,156.37523739954943L174.261375,157.772192771354L174.563912109375,155.8998887633475L174.6647578125,154.47992791501636L175.87490625,184.671345494127L177.8918203125,171.55651304713234L179.001123046875,167.3686301946124L179.10196875,163.13184263601386L179.70704296875002,188.86297491754578L180.3121171875,177.37231349361832L181.9256484375,170.9936504456176L182.026494140625,163.0798335724179L182.22818554687498,165.9109157786233L183.438333984375,174.42728933940708L184.749328125,166.3013649048629L185.55609375,170.45179988163844L185.85863085937498,169.41811258075714L187.270470703125,168.27080853254444L187.77469921875002,162.6478171350093L188.17808203125,160.15452538588428L188.682310546875,157.11449916491577L190.19499609374998,179.8378173619052L191.304298828125,173.65173585985144L191.707681640625,169.70356225769146L194.63220703125,162.9374014032548L194.83389843749998,160.44522211077205L195.84235546875,183.1126176414632L196.548275390625,170.2055280896352L197.960115234375,186.4266329792694L199.57364648437502,173.6711932770941L199.87618359375,166.81011717729572L201.08633203125,168.1263172953097L201.59056054687503,165.7139776035449L201.89309765624998,166.8863560079277L202.0947890625,160.71601678882084L203.20409179687502,157.012190483169L203.91001171874998,155.6430189906257L204.31339453124997,155.64576735903606L204.5150859375,153.05802322771817L205.422697265625,153.66177655768396L207.338765625,155.61973482295673L208.75060546875,174.77686367209435L208.85145117187503,185.96941519218888L209.053142578125,189.5485825340959L209.456525390625,174.97903865492816L210.36413671875,171.59206542623326L211.57428515625,164.22672964956928L211.97766796874998,160.52961324903112L212.17935937500002,165.35787413228005L212.48189648437503,163.5644826336649L212.683587890625,162.27114426566445L212.885279296875,157.1308073353844L213.893736328125,168.75713542662123L214.297119140625,165.75251882616317L215.00303906250002,160.42731714642628L215.20473046875,169.37722617245862L215.708958984375,175.70930547072777L216.41487890624998,183.0162867777166L216.91910742187497,171.08601388613883L217.019953125,163.61026531130773L218.2301015625,166.1077803924324L219.23855859374999,160.11151318292474L219.44025000000002,156.9496297092238L219.541095703125,154.61404473770853L220.24701562500002,166.69477348162252L220.751244140625,161.90747470222425L221.15462695312502,157.90363393518032L221.25547265625,156.5075517231586L222.46562109375,154.0466099022525L223.27238671875,156.3104046305198L223.67576953124998,156.25204962493052L224.179998046875,154.28716442131042L224.381689453125,155.25623906314598L226.2977578125,154.07637235214847L226.49944921875,152.61317773725116L227.00367773437497,153.07720043609254L227.10452343749998,165.74012119752788L227.30621484375,172.89464554159616L227.60875195312502,166.56827772870528L228.012134765625,159.75305478317856L228.617208984375,162.22418352196607L229.02059179687498,158.10081009486908L229.52482031249997,155.94664620910245L230.12989453125002,154.2162950800071L230.43243164062503,152.9320454230354L230.93666015625,159.08049048013962L231.74342578125,158.58606114243352L232.14680859375,160.4009438998156L232.55019140625,157.403779011805L233.457802734375,159.9872333738799L234.16372265625,166.23197227733903L234.466259765625,167.6840988734021L234.56710546875001,164.03433088165846L235.474716796875,163.9083959034661L236.48317382812502,160.65617559800822L237.99585937499998,156.6448213294006L238.3992421875,153.6375945969059L239.508544921875,153.2583252399703L239.60939062499997,152.04685880714695L240.0127734375,152.11683154252793L241.32376757812497,153.33060469384762L243.744064453125,154.09016924127602L245.86182421875003,155.10446309159997L245.962669921875,153.09570614450055L246.97112695312498,151.78567595956054L247.77789257812498,151.03581388452847L247.87873828125,150.35393880284943L248.181275390625,151.81288371984036L249.49226953125003,151.1249918089382L249.6939609375,147.66470301281245L250.80326367187502,146.37673064252635L251.10580078125003,148.77850129241685L251.50918359375,153.70467794728444L252.31594921874998,152.61724776810107L253.021869140625,157.16390576433562L253.12271484374997,155.00456846114452L253.42525195312498,152.93429256454576L253.7277890625,153.14908956435207L254.9379375,153.20841917592813L255.54301171875,151.45126097605146L255.94639453124998,148.77334513899592L256.9548515625,143.9407342593009L257.257388671875,145.98057366689847L258.669228515625,147.8611056169717L258.971765625,145.88899275301588L259.475994140625,147.19779545522545L259.77853125,136.81959151263723L260.686142578125,145.3650797697446L261.7954453125,151.3891365845844L262.299673828125,150.8549278132664L262.50136523437504,148.515962372876L264.92166210937495,148.4683867697339L265.728427734375,147.03365065976112L265.930119140625,149.07479289804374L266.23265625,141.05345746083148L266.83773046875,144.2826787698135L266.93857617187496,147.91813100024055L267.64449609375,148.23775928022854L268.45126171875,147.98190061716872L268.85464453125,148.2540783763844L269.25802734375,150.24544337821712L269.963947265625,150.72282080706384L270.165638671875,140.81731566945965L270.770712890625,142.37889567965024L271.67832421875,144.26718585520837L272.48508984375,141.24118782131185L272.68678125,145.0013140023091L272.989318359375,138.06097057708533L273.29185546875,142.73403129555643L273.392701171875,138.96804901415027L274.09862109375,131.36506066866266L274.60284960937497,135.35352557254362L275.30876953125,140.69754733637492L276.21638085937496,143.96998898939003L276.619763671875,133.1690755428853L276.821455078125,132.7058829823881L277.72906640625,127.02146668315031L278.838369140625,129.33683191622157L279.84682617187497,133.0111173015884L280.04851757812503,125.45368495614834L280.7544375,130.66290145830817L281.258666015625,134.00712349725868L281.56120312499996,132.26572010258695L282.36796875,137.50195639423447L284.284037109375,136.94155502448828L285.39333984375,124.51201793087137L287.107716796875,128.15341283371814L287.511099609375,135.66215312269588L288.4187109375,128.91002232202246L288.922939453125,116.79002189744526L289.02378515625,116.72192773807652L289.124630859375,130.23418569640683L291.242390625,138.14735883224228L292.351693359375,137.4522438149704L292.65423046875003,124.87892976473093L293.2593046875,113.62302381749737L293.360150390625,107.61275593682008L294.26776171875,110.9636503679189L294.8728359375,103.67449626730081L294.973681640625,100.17998937008099L296.08298437499997,116.64552781699491L296.4863671875,115.12339317945474L296.990595703125,111.23877069771193L297.192287109375,102.94214095052823L298.0998984375,100.25929479980908L298.50328125,99.74458066406515L298.604126953125,97.42161403564613L298.805818359375,101.70910716650484L298.9066640625,96.70577761370502L299.10835546875,104.57013758466178L300.217658203125,98.17611404900673L300.419349609375,98.26611903161755L301.226115234375,97.48659704966715L301.3269609375,95.66107792381075L301.629498046875,110.67060327284115L305.15909765624997,102.65650652343773L307.27685742187504,96.94221761442073L308.083623046875,113.09848286357428L309.59630859375,110.61290388236984L310.503919921875,97.2650460891875L311.512376953125,97.83091691539401L312.319142578125,94.18638575714657L312.62167968750003,90.3626332283765L312.92421679687504,86.17302402882281L313.529291015625,86.96305849281451L314.03351953124996,85.06672848761579L314.134365234375,87.76178989611768L314.53774804687504,87.8865519487383L314.63859375,85.70130215719871L315.34451367187495,87.3309701126786L316.554662109375,88.07157965468396L318.571576171875,87.29073679834427L319.580033203125,84.26582255589457L321.39525585937497,79.05767765625804L322.10117578125,74.89994632357258L322.807095703125,72.55344140254198L323.613861328125,74.4961934466684L323.815552734375,75.45677422229792L324.218935546875,74.64750962615219L324.824009765625,75.13146490655068L325.22739257812503,74.79091532088356L326.3366953125,79.86598766095459L326.63923242187496,79.19232245497119L327.14346093750004,78.2668582434905L328.454455078125,71.15205277161515L330.87475195312504,66.80209055782585L333.295048828125,68.13974625364085L333.39589453125,67.25305568675483L334.4043515625,62.27646047097214L334.706888671875,61.50127638023957L335.2111171875,59.12670142384684L336.0178828125,56.57068032696441L337.02633984375,57.77039436968124L338.034796875,62.00039100820195L338.740716796875,62.72709543662694L341.766087890625,58.04477550741887L342.169470703125,56.48064326669087L342.27031640625,56.490256947970245L342.67369921875,56.8767650900061L346.001607421875,58.45254857223285L346.404990234375,57.68076954861315L346.50583593749997,57.366155088542875L347.010064453125,82.9797091297859L348.32105859375,79.98767923763717L349.12782421875,63.864789223897375L349.430361328125,55.96375904052331L351.447275390625,62.089865263181196L352.254041015625,60.51252426858581L352.75826953125005,56.28805128803947L352.9599609375,55.44179857067526L353.262498046875,51.68703933120722L353.464189453125,55.30629933928421L353.56503515624996,56.356301820367435L354.674337890625,58.713038782650095L354.77518359375,52.41377999973329L354.876029296875,54.411074762535264L355.077720703125,52.09888149489101L355.279412109375,49.640220384564785L355.783640625,48.857779626572196L355.98533203125,49.992906081607416L356.79209765625,50.91189877591756L359.514931640625,46.85008517212608L359.61577734375,49.209742151452694L360.725080078125,44.66430667596281L360.82592578124996,43.09245773604646L361.8343828125,46.01224536916691L361.935228515625,50.082919527815235L362.237765625,51.17755822710585L362.94368554687503,47.290273437240025L363.64960546875,47.17615853662791L364.96059960937504,65.24637208323976L365.76736523437495,62.17646081504806L365.8682109375,60.26259934059129L366.574130859375,54.50178195136L366.87666796875,87.1246448198232L366.977513671875,68.31478082093037L367.078359375,57.39079837537069L367.380896484375,50.26922762548283L369.29696484375,50.601845787529285L370.10373046875,49.097326369001934L370.204576171875,49.74907088650533L370.50711328125,51.77053828385635L371.213033203125,47.70399515455859L371.5155703125,45.41277687789142L371.71726171874997,45.32919421104472L372.01979882812503,79.55591345045495L372.423181640625,66.50344477437456L373.33079296875,57.232951377971084L373.93586718750004,55.88987685705607L374.440095703125,54.38240655043151L374.843478515625,57.457102914633914L375.04516992187496,88.63120147859804L376.053626953125,66.25997046398177L376.15447265625,59.82705668431353L376.55785546875,55.10249410173395L377.06208398437496,51.21494846299349L377.1629296875,49.34980535709294L377.263775390625,50.38978082167764L377.56631250000004,56.8004798618217L378.473923828125,52.5341464538769L378.57476953125,49.20096563925326L378.675615234375,48.593392274176935L379.17984375,48.511895854415016L379.684072265625,47.85786820926355L379.986609375,42.10853872340974L380.490837890625,40.024479947913015L380.69252929687497,47.00840517252383L380.99506640625,48.92328857063671L381.700986328125,41.600407639452314L382.91113476562504,49.56798996941362L384.42382031249997,52.0861343869216L385.63396875,46.952432853832605L386.64242578125,43.39343604693503L387.04580859375,47.092039329983926L387.65088281249996,48.310595806649204L388.356802734375,55.314413880473914L388.4576484375,51.36528546207341L389.365259765625,77.34732517535599L389.46610546875,64.29931851829956L391.38217382812496,91.23142246270497L391.48301953125,73.63758919539646L392.390630859375,65.33800301268057L392.592322265625,58.91541634211352L395.11346484375,54.35723820858845L395.416001953125,54.05447834995773L395.7185390625,46.44266111479237L396.32361328125,47.977024924083764L396.72699609375,44.49838639813513L396.827841796875,52.65101784962326L398.54221875,54.59387563490419L398.844755859375,51.18681470385918L399.55067578125,55.83445393462021L399.853212890625,52.44656989495186L400.054904296875,50.57733499523932L400.65997851562497,57.61680705996913L401.97097265625,53.491541812478886L402.9794296875,54.21604437459669L403.281966796875,51.288601128338755L403.58450390624995,80.04647391552861L404.39126953125,67.63007420934322L405.298880859375,100.1605337214932L406.81156640625,79.52374261245319L408.122560546875,80.01478210718551L411.75300585937504,65.33010787922012L411.8538515625,60.921778521477385L412.45892578125,50.69426102564683L413.064,48.851985472810014L413.769919921875,44.86941492463654L413.870765625,75.18148859915041L413.97161132812505,72.482863773097L414.173302734375,62.210971291201986L414.57668554687496,60.27958410121859L414.980068359375,57.65517962739782L415.383451171875,92.70051194208807L415.484296875,77.07279449435444L415.58514257812504,66.74357633040171L416.08937109375006,58.976598849998844L416.2910625,53.996738574322215L417.29951953125,54.13328660976262L418.00543945312495,91.64876052583477L420.829119140625,76.48644182982379L421.33334765625,104.90032319420773L422.240958984375,92.45323148162879L422.54349609375004,85.11864762107362L422.74518750000004,71.88019875330824L423.451107421875,99.00007264859143L423.95533593749997,77.65043932483191L424.7621015625,65.52538312614914L425.165484375,60.57166677347594L425.26633007812495,58.20779432678085L425.56886718749996,57.09827460225342L425.77055859375,55.578922232055184L426.476478515625,92.38624086644464L427.68662695312497,86.20388477051783L427.88831835937503,82.0217515247456L430.106923828125,67.93313502129266L430.4094609375,66.32901321492406L433.43483203125,67.37042030688413L434.24159765625,99.10671631783816L437.6703515625,73.3936398167446L438.17458007812496,54.60919000170037L439.2838828125,53.86737721716607L440.191494140625,51.77967035699237L440.8974140625,60.73424760807562L441.09910546874994,68.3489842419287L441.40164257812495,71.16019564769628L441.60333398437496,71.94208567475061L442.10756250000003,65.1831988495118L442.208408203125,61.44735339173835L443.015173828125,73.97266889132553L443.11601953125,63.91058754898804L444.1244765625,60.83499772796051L444.52785937500005,54.50854415272682L445.53631640625,53.46538561435745L445.93969921875,54.5109921514921L446.34308203125,59.11095982540041L447.14984765625,60.10349214686786L447.65407617187503,57.23027098799051L449.16676171874997,55.42881828127088L449.267607421875,55.65943908887966L449.87268164062505,54.77233966589289L450.5786015625,55.19483987538211L450.981984375,55.20402019313293L451.99044140625,53.715776333002125L452.09128710937495,89.44334575687326L452.1921328125,75.28413486297806L452.292978515625,67.58148645164104L452.89805273437497,58.32555863530754L453.09974414062503,60.24319821829391L453.40228125000004,57.88313207388L453.8056640625,58.10458796014826L454.108201171875,57.16760740662279L455.21750390625004,56.990463459273194L456.42765234374997,53.79488483012121L457.335263671875,50.73073114221339L457.43610937499994,50.77007200238526L457.940337890625,53.18346933261608L458.24287499999997,54.32506637333271L458.84794921875,54.70473068500216L459.65471484374996,52.891547362824205L460.46148046875,50.09431298800705L460.764017578125,48.095240104002116L461.369091796875,48.22600074371638L461.46993749999996,35.18953587917254L462.276703125,41.17214642984727L462.579240234375,45.46327085758283L462.6800859375,48.47246194488828L463.890234375,48.10353828346939L465.201228515625,87.4092041910899L465.30207421874996,110.44484598368882L465.402919921875,89.26852804919768L465.50376562499997,76.0910485596618L466.91560546875,67.62314441900021L469.33590234375,69.27824571715537L469.638439453125,64.81703874702495L469.840130859375,63.3348105935926L470.04182226562494,93.27258774979163L470.34435937499995,115.13061793358673L470.7477421875,93.03757674159736L471.05027929687503,114.43002247114654L471.151125,127.06550357363034L472.96634765625004,114.96291328919773L473.9748046875,89.68361085600563L475.184953125,74.56154367831692L475.68918164062495,66.16905713146929L475.79002734375,61.91631881664199L476.092564453125,62.85210377370921L477.2018671875,58.50940853701191L477.30271289062495,58.897026583795714L478.512861328125,47.34322686336335L478.61370703125004,47.53072150213259L478.81539843750005,45.320989712803026L478.91624414062494,80.92214723751249L479.21878124999995,75.29437266054136L479.319626953125,97.09163747165036L479.42047265624996,77.95417130134958L480.12639257812504,101.02378915369385L480.328083984375,103.37633759947545L482.04246093750004,118.43915233182072L482.24415234375,128.59206840918355L482.34499804687505,98.13862906634347L482.748380859375,116.99787010338031L483.05091796875,126.79957664068218L484.765294921875,131.86360232291025L485.370369140625,137.77334152782007L486.37882617187506,122.41000612925714L487.99235742187506,96.03334752521054L488.89996874999997,114.45392705252054L489.10166015625,127.98681705228259L489.30335156250004,99.5020725962784L489.807580078125,83.03683484194677L490.1101171875,72.99765127137893L491.017728515625,63.51852255807474L491.320265625,58.85369157846468L491.622802734375,58.54391953692252L494.34563671875003,56.64038381036962L494.95071093750005,57.38756375790147L495.25324804687494,87.88615653477021L495.656630859375,73.31926875810171L496.26170507812503,65.3347314697048L496.56424218750004,59.029164313137926L497.270162109375,55.14419846581247L497.47185351562496,57.40477399485208L497.77439062499997,53.27794761631226L499.488767578125,53.22158247766497L499.892150390625,55.32921114024482L500.698916015625,54.6648817053057L500.79976171875,53.711525230865725L501.707373046875,55.38968100766002L502.312447265625,59.8358250840882L502.41329296875,55.14678053222377L502.51413867187495,58.24476166243318L502.81667578124996,58.26618770221252L503.42175,56.879789786041044L504.228515625,56.58542761511423L505.03528125,53.05224014654245L505.4386640625,84.92256160704983L505.64035546875004,64.04903755830541L506.54796679687496,60.065353744293155L507.0521953125,59.95449011929725L507.65726953125,60.26863517672156L508.26234375,92.89904525601666L508.968263671875,73.10911002307611L510.78348632812504,102.05466223627815L512.6995546874999,84.88968233525644L513.1029375,71.86355898611487L513.5063203125,94.14115447329323L515.220697265625,78.5073863770098L515.825771484375,67.88393058922671L516.4308457031251,90.07522887965908L516.7333828124999,74.67429629589441L518.54860546875,104.2285394110917L518.95198828125,84.04473740804823L519.657908203125,66.45435868018052L519.9604453124999,60.87615407529585L521.069748046875,57.911943991401444L522.0782050781249,86.64394157591184L522.17905078125,100.56855446987981L522.481587890625,107.40949370894609L523.590890625,115.97065868467756L525.103576171875,125.39024779259364L525.204421875,94.45314417523065L526.515416015625,75.5745124898389L527.120490234375,62.55538644084345L527.322181640625,55.56391342375085L527.42302734375,90.31862292811118L528.0281015625,76.07041845901513L529.0365585937501,104.80407117174292L529.3390957031249,82.21060498331917L529.6416328125,104.85344061857221L529.7424785156251,85.82326680441159L530.145861328125,111.1414223257907L531.154318359375,112.26752516468015L532.4653125,125.54707741417673L532.5661582031249,134.15625775018245L534.28053515625,125.22603953373579L535.389837890625,133.17219887282937L536.29744921875,97.42964679765595L536.8016777343751,116.95783787463441L537.30590625,90.1906077459395L537.9109804687499,109.79531491204938L538.818591796875,119.35917503528304L539.625357421875,130.92627806524735L540.53296875,100.07796603348439L541.6422714843751,79.39125156833278L542.1465000000001,104.22085556339552L542.4490371093749,82.48530276674826L544.062568359375,71.25710239572605L544.869333984375,95.47669668523832L545.272716796875,71.53738808764042L545.57525390625,62.43457285095663L545.877791015625,97.19808242352055L545.97863671875,77.97606756934672L546.78540234375,103.65410168866204L546.98709375,113.147950368666L548.096396484375,126.98722698135177L548.903162109375,93.38885922754801L550.01246484375,103.82443477481006L550.41584765625,82.82492789776366L551.22261328125,70.89303349647068L553.542064453125,100.3706633957136L554.147138671875,115.2863567227309L554.5505214843749,90.8294086299927L556.06320703125,109.6187578824634L556.66828125,79.68358558885302L556.970818359375,68.01764281652794L557.172509765625,55.11050740215639L557.8784296875,50.37269070431461L558.180966796875,48.850709490948134L558.584349609375,86.52527227405702L558.987732421875,71.05545765968165L559.0885781249999,60.06187598741053L559.391115234375,85.20895057210126L560.702109375,71.05574471663319L560.9038007812501,59.68755480524028L561.1054921875,53.97052557520145L561.508875,54.8097931527381L561.9122578125,90.25085900881L562.11394921875,70.37036054688757L562.92071484375,99.64774095734394L563.929171875,76.37264385826056L565.34101171875,96.26570156560736L565.643548828125,80.93382386091386L565.9460859375,67.77589043471244L567.6604628906249,57.5620373369993L569.1731484375,90.3724993716006L569.677376953125,75.75341492243955L569.77822265625,67.93942705404966L570.18160546875,58.57581401237769L570.58498828125,57.729469689978714L570.685833984375,56.267108791526326L570.98837109375,92.18140926702185L571.492599609375,77.0379713658772L571.5934453125,67.95890067434406L572.60190234375,61.303030289046546L573.40866796875,57.0535235852118L573.81205078125,52.4460647126505L574.0137421875,87.49791504320714L574.6188164062501,109.58983092798321L575.4255820312501,87.62232230353469L575.526427734375,109.9341272724L576.131501953125,84.190319340328L576.4340390625,71.16153480894943L577.84587890625,100.79372403529236L578.148416015625,82.03887643777695L578.24926171875,70.16984532067397L578.551798828125,62.145335545268956L580.367021484375,56.24841141830721L580.7704042968751,52.11443556354941L581.47632421875,47.35347617374163L582.0813984375001,87.52702998245343L582.48478125,110.5229110675767L582.585626953125,86.03782028149652L583.89662109375,109.75263372773581L584.70338671875,118.90589160952557L585.3084609375001,92.10405180328047L585.610998046875,74.98498604616096L585.91353515625,91.72444761321091L586.1152265625001,75.58317199403335L586.31691796875,64.99267087220122L587.93044921875,56.88837289278688L588.132140625,78.18193322460446L588.3338320312499,60.2051442690726L588.434677734375,94.21792310166569L588.5355234375,75.13490310416348L589.241443359375,103.04041310578425L589.3422890625001,77.14407606985074L591.15751171875,67.0594432411943L591.460048828125,60.025628680719166L593.17442578125,54.81500316057992L594.485419921875,51.96681875018913L595.7964140625,84.86535452322543L595.99810546875,64.99042477448211L597.9141738281251,95.81303265501319L598.317556640625,112.34364324514821L599.0234765625,120.30649889468008L599.426859375,92.67524836024552L599.931087890625,70.06566082441552L602.8556132812499,62.5406368592327L603.0573046875,92.53802082708742L604.06576171875,77.64211243928634L604.1666074218749,69.65467919859783L607.393669921875,63.04010781212743L609.813966796875,59.60377009906034L611.024115234375,56.689170645048165L611.225806640625,56.588988283838795L611.73003515625,56.1312309992746L612.7384921875,90.26516766654069L613.041029296875,112.7069586087542L613.141875,88.88639837488796L613.948640625,111.03910580502308L614.15033203125,116.11951981439407L614.654560546875,94.21266617737336L615.259634765625,114.44779340505276L617.3773945312499,121.82331672499782L618.3858515625,92.4684274698945L618.789234375,74.64930976969713L619.1926171875,98.9959347428404L619.8985371093751,74.03995797298289L620.301919921875,62.27216355332097L620.402765625,81.93330089891965L620.60445703125,102.80121982768193L620.705302734375,90.86272554081482L621.915451171875,84.6857318658301L622.8230625,105.52836789350519L623.9323652343751,117.70145555971152L625.0416679687501,126.63844290573252L625.2433593750001,92.12351630496295L625.747587890625,73.55479621689703L625.949279296875,103.49209723392242L626.4535078125,119.5778056385305L627.05858203125,124.59028986098289L627.764501953125,95.77821031795692L628.167884765625,77.37995083270125L629.0754960937501,67.38031615391759L630.5881816406251,64.54515704261102L630.6890273437499,60.7306495234182L631.09241015625,55.52794179738422L631.4957929687499,89.10874135203082L631.798330078125,77.45232694826277L633.91608984375,103.24963794548762L634.622009765625,83.5551532913811L634.823701171875,71.75085428765415L635.025392578125,62.250578303386746L637.14315234375,97.0113451508502L637.243998046875,82.53002915268462L637.54653515625,106.49810789993597L637.7482265625,122.59935436500224L638.151609375,129.1422891570873L638.252455078125,101.946979223419L638.7566835937499,119.88266499656568L638.958375,130.7027274883874L639.16006640625,131.8430841370754L639.664294921875,98.60763586635984L641.58036328125,80.67169825972476L642.1854375,67.13075780674633L642.38712890625,95.7070998154768L642.689666015625,116.61296708380519L643.59727734375,93.21051135379871L644.706580078125,106.20267306797584L645.61419140625,119.55809306706315L645.715037109375,95.00165260130566L646.118419921875,114.92677598410289L647.126876953125,128.83698311047615L647.832796875,136.73125488652906L648.2361796875,102.81629122130548L648.942099609375,118.85180453421552L649.950556640625,107.32071111815301L650.152248046875,89.33217934016265L650.2530937500001,113.18080510597949L650.6564765625,89.30994592166063L650.85816796875,73.37922535735834L651.0598593750001,60.1558854504176L651.160705078125,57.42448457428701L651.3623964843749,90.45995212966338L652.47169921875,103.41932720431168L655.0936875000001,121.66559197306918L655.9004531249999,128.45860165194048L656.202990234375,136.3034006647788L656.4046816406251,101.68656965505218L656.50552734375,82.95842552512764L657.211447265625,103.8062999989145L657.614830078125,83.55192758235653L657.816521484375,96.25566610751936L658.11905859375,78.47142423319656L660.035126953125,66.30495182181892L660.7410468749999,95.64677349075579L660.9427382812501,76.34872807557323L661.245275390625,65.83874859664603L662.253732421875,61.29638949001892L663.463880859375,87.73773948421312L665.9850234375,104.5897568700526L669.918005859375,115.71286776135452L670.926462890625,126.23672139025186L672.338302734375,103.57754312060945L672.84253125,114.51526820635003L673.04422265625,125.00489263259092L674.3552167968751,128.83586025403372L675.968748046875,136.92817405799886L676.2712851562501,138.84748711505648L676.977205078125,136.86935137141018L677.2797421875,140.51098053058945L677.985662109375,106.72902841438234L678.69158203125,116.13013911487288L678.994119140625,110.47397507048622L679.7000390625,126.30966616284631L680.002576171875,135.40884192538928L680.70849609375,136.39132185750407L680.9101875,139.3319452125859L681.212724609375,140.51024058031035L681.3135703125,142.28400078434345L681.414416015625,144.67510887463848L681.51526171875,138.83456288337683L682.221181640625,140.3966912863412L682.9271015625001,139.8509643669382L683.8347128906249,140.39213270239762L684.238095703125,140.57817851568498L684.641478515625,137.05424993167665L686.658392578125,133.82740146250532L687.8685410156249,137.10923830283684L688.97784375,139.37014724297327L690.692220703125,103.67884116967717L691.700677734375,118.95881853440717L692.4065976562499,125.60850984216125L692.709134765625,125.78238158685598L693.7175917968749,135.01975729137243L693.8184375,137.38114257876222L694.02012890625,101.98490705604642L694.625203125,116.67895083457998L695.331123046875,115.29282649033136L697.953111328125,121.37922000308554L699.26410546875,126.42785368967681L700.6759453125001,97.35355717637117L701.180173828125,116.34668927917069L701.4827109375001,112.83063198384359L702.2894765625,108.54814853438165L702.89455078125,122.94600857863679L704.003853515625,132.13333546232695L704.91146484375,99.33426899386751L705.6173847656249,113.48343979801322L706.2224589843751,104.30218404482358L706.625841796875,119.66068010971479L706.8275332031251,118.00299366560098L706.92837890625,91.77585126120954L709.95375,80.2750387108273L710.3571328124999,60.016086336847906L710.457978515625,50.826776525416065L711.264744140625,53.18673500704656L712.97912109375,52.041454073889376L713.5841953125,84.47517288785578L713.78588671875,70.40773232971866L713.886732421875,97.20158506230064L714.99603515625,97.98746409483476L715.298572265625,101.97550442125636L716.710412109375,121.01747731222852L717.113794921875,93.07014262106105L717.3154863281251,79.06962990857411L718.525634765625,105.1263740643258L719.332400390625,122.89681750487458L719.83662890625,97.10086149901848L720.0383203125,113.12386183654489L720.24001171875,107.65253420397772L722.862,122.88805344322402L724.576376953125,130.47990913807794L725.786525390625,137.2577298619158L726.593291015625,102.5210361349229L727.198365234375,119.4422789217578L728.1059765625,131.23714436492602L728.206822265625,96.13682976674207L728.610205078125,80.1378936201364L729.013587890625,92.35189674337092L729.416970703125,104.09452129797566L729.7195078125,82.15889293015259L729.9211992187501,106.71889320234614L730.425427734375,122.54049950376442L731.2321933593751,129.58302963084753L733.047416015625,137.60334657680258L734.055873046875,132.42539766979576L734.2575644531249,97.98746392739828L734.963484375,102.61673566845069L735.77025,115.42744821869736L735.871095703125,119.85008906264747L736.1736328124999,93.88913196135147L737.58547265625,73.87121360063901L738.9973125,103.02878914315116L739.4006953125,112.29983539384972L739.501541015625,84.08371951430459L739.6023867187499,99.31876466756712L740.913380859375,115.23279940316073L741.5184550781249,92.28777417314646L742.02268359375,109.26538860972282L742.123529296875,116.43784986505246L742.325220703125,120.92468689453601L742.6277578125,130.80929995461307L742.8294492187499,131.41706567833424L743.131986328125,137.3774428366677L744.2412890625,126.0967031124824L746.8632773437499,135.26125336913228L748.6785,138.0151120505728L750.191185546875,142.6108859958568L750.49372265625,108.85713936932397L750.594568359375,116.92446532325452L750.997951171875,91.99232135703865L751.199642578125,102.45005559498492L752.2080996093749,86.5480745842045L753.619939453125,108.9339354162128L755.031779296875,113.80508905124135L755.4351621093749,121.14664738216082L755.73769921875,126.43740735833296L755.838544921875,124.72107452771135L758.5613789062501,132.80318235802494L759.166453125,137.02061041172252L759.4689902343749,102.47479392444238L760.3766015625,113.18236202767972L760.98167578125,87.03916974753234L761.485904296875,70.8390028169439L761.5867499999999,75.8410257136038L761.687595703125,90.13048248952299L761.889287109375,78.925046988831L762.7968984375,69.55037549147568L763.099435546875,100.64328978157972L763.301126953125,115.88848766797945L763.7045097656251,126.72308868131337L764.914658203125,99.9435779402333L765.116349609375,84.98915053204367L765.41888671875,76.13589889670016L765.923115234375,98.62138850387294L766.326498046875,81.27976580089145L767.940029296875,100.25394228082784L768.0408749999999,113.80822307113343L768.4442578125,123.7876670061322L769.3518691406249,118.48610203880304L771.06624609375,124.92229407647193L771.368783203125,93.50490890844827L772.578931640625,112.13786081137755L773.48654296875,124.90963644583127L773.789080078125,108.97338829653518L776.209376953125,116.69297900860145L776.612759765625,124.01916015194635" style="fill: none;" fill="none"></path></g></g></g></g><g opacity="0.2"><g><g><g><path stroke="rgb(255, 112, 67)" stroke-width="2px" d="M101.2490859375,156.69751465352377L102.66092578125,163.10670161183674L103.46769140625,151.98805212688447L103.56853710937499,157.41942781321208L104.87953125,172.37922704060873L105.585451171875,364.04297204589847L105.68629687500001,164.6160045674642L107.09813671875001,243.47416577148437L107.19898242187499,346.5322301839193L107.602365234375,193.5407029215495L108.005748046875,160.15439878845217L108.61082226562499,169.2014419453939L109.11505078125,343.582883219401L109.820970703125,153.57966312026974L110.829427734375,361.56654715983075L111.232810546875,358.15055224609375L111.636193359375,362.5595163167318L113.048033203125,356.0339463704427L113.451416015625,356.50860188802085L113.55226171874999,354.8059811604818L113.753953125,351.76014453125L113.95564453124999,157.7093493423462L114.56071874999999,348.9111836344401L115.36748437499999,153.4139329649607L115.670021484375,352.866676961263L116.678478515625,364.14368025716146L116.981015625,212.49754336547855L117.18270703124999,358.65814310709635L117.3843984375,355.9513855794271L118.1911640625,186.0746003519694L118.69539257812501,187.35889466349283L120.10723242187501,351.0060371500651L121.317380859375,183.9238702697754L121.51907226562501,342.3805667724609L122.32583789062501,161.03099646250408L123.939369140625,158.52536437352498L125.4520546875,158.86396073913576L125.55290039062501,338.5877252604167L126.86389453125,343.758696899414L126.96474023437499,158.02606631215411L128.17488867187498,188.3648339335124L128.47742578125,178.38905474344887L129.28419140625002,187.03576550292968L129.586728515625,155.69710647328694L130.09095703125,161.22112635548908L130.595185546875,310.6464659830729L131.9061796875,154.69823159090677L132.7129453125,170.34975524393718L132.91463671875002,163.41761903889974L133.015482421875,182.10736029052737L133.31801953125,164.60988383992515L135.637470703125,161.98064498138427L135.73831640625002,287.95608528645835L136.94846484375,155.83912384287518L137.55353906250002,157.27593395233154L137.654384765625,153.99020559883115L137.75523046875,169.91538301086425L138.96537890624998,161.92058821868898L139.77214453124998,167.44389765930177L140.17552734375,164.81471249135333L140.37721875,161.83708017222085L140.881447265625,168.81289463297526L141.38567578125,271.998052347819L141.58736718749998,281.7541622314453L142.696669921875,156.5462155227661L143.301744140625,167.0628267618815L143.40258984374998,162.41230200449624L144.8144296875,168.644296585083L144.915275390625,155.8553825047811L145.116966796875,170.63987619527182L145.82288671875,177.85520726521807L146.4279609375,151.72071755886077L147.33557226562502,152.46399777666727L147.738955078125,151.73451765902834L148.04149218749998,159.07819962565105L148.24318359375,155.57383718744916L148.64656640625,155.48348167292278L148.747412109375,156.63432130559283L149.251640625,158.9314124221802L149.352486328125,152.17826267560324L149.95756054687502,155.3557177174886L152.27701171875,255.2355809326172L152.478703125,169.25665696716305L152.57954882812498,255.32390962727865L152.68039453125,260.05105181884767L152.982931640625,172.43310555013022L153.184623046875,185.736560546875L154.596462890625,166.737635307312L154.69730859375,245.07775036621095L154.899,157.0710367495219L155.10069140625,157.39487970733643L155.3023828125,153.40308099365237L155.705765625,157.4797261835734L155.90745703125,267.34205019124346L156.51253125,152.62546132755278L156.9159140625,174.8787312113444L157.52098828125,256.6519310913086L157.7226796875,160.1073217264811L158.12606250000002,167.28868966166178L159.73959375,150.86370557326077L160.34466796875,153.87823770332335L160.74805078125002,154.1627479877472L160.94974218750002,154.75102789942423L162.664119140625,163.22933476003013L162.76496484375002,169.24185370381676L163.57173046875002,165.75374944814047L163.672576171875,184.6545915629069L164.17680468749998,163.41624321746826L164.277650390625,156.9625457992554L165.084416015625,163.89704726664226L165.689490234375,160.7288258082072L165.7903359375,160.6657422383626L166.294564453125,238.50217146809896L167.20217578125,172.05982745869954L168.109787109375,153.07180716196694L168.91655273437502,154.55640908940634L169.0173984375,152.32232208538056L170.6309296875,153.72760443178814L170.83262109375,152.47076578744253L173.55545507812502,174.92367790730793L173.757146484375,151.71193866761527L173.958837890625,153.0002788289388L174.261375,159.8676258290609L174.563912109375,153.0914327513377L174.6647578125,152.34998664251964L175.87490625,229.95847186279295L177.8918203125,151.88426437664032L179.001123046875,161.08680591583254L179.10196875,156.77666129811604L179.70704296875002,227.45967333984376L180.3121171875,160.13632135772704L181.9256484375,161.42565587361656L182.026494140625,151.20910826261837L182.22818554687498,170.15753908793133L183.438333984375,187.2018496805827L184.749328125,154.11247825304665L185.55609375,176.67745234680177L185.85863085937498,167.86758162943525L187.270470703125,166.54985246022542L187.77469921875002,154.21333003870646L188.17808203125,156.41458776219687L188.682310546875,152.55445983346303L190.19499609374998,213.92279465738932L191.304298828125,164.37261360677084L191.707681640625,163.7813018544515L194.63220703125,152.78816012159982L194.83389843749998,156.70695317204795L195.84235546875,217.1137109375L196.548275390625,150.8448937618931L197.960115234375,210.7582903137207L199.57364648437502,154.53803372383118L199.87618359375,156.51850302759806L201.08633203125,170.10061747233073L201.59056054687503,162.09546806589762L201.89309765624998,168.64492361450198L202.0947890625,151.46050796016056L203.20409179687502,151.45645102469126L203.91001171874998,153.58926175181074L204.31339453124997,155.6498899116516L204.5150859375,149.17640703074136L205.422697265625,154.56740655263263L207.338765625,158.5566722208659L208.75060546875,203.51255694580078L208.85145117187503,202.75824247233075L209.053142578125,194.9173335469564L209.456525390625,153.12472283617657L210.36413671875,166.51160558319089L211.57428515625,153.17872598457336L211.97766796874998,154.9839386482239L212.17935937500002,172.60026545715334L212.48189648437503,160.8743953857422L212.683587890625,160.3311367136637L212.885279296875,149.4203019399643L213.893736328125,186.19662756347654L214.297119140625,161.24559392547607L215.00303906250002,152.4395146268209L215.20473046875,182.80208971150716L215.708958984375,185.2074244181315L216.41487890624998,193.9767587381999L216.91910742187497,153.19060454877217L217.019953125,152.39664244906106L218.2301015625,169.85405301411947L219.23855859374999,151.11711236866316L219.44025000000002,152.20680449867248L219.541095703125,151.11066728043556L220.24701562500002,184.81586659749348L220.751244140625,154.72652653312684L221.15462695312502,151.89787278461455L221.25547265625,154.41342840512593L222.46562109375,150.35519717089335L223.27238671875,159.70609672292076L223.67576953124998,156.16451711654662L224.179998046875,151.3398366158803L224.381689453125,156.70985102589924L226.2977578125,152.30657228565215L226.49944921875,150.41838581490518L227.00367773437497,153.77323448435467L227.10452343749998,184.73450233968097L227.30621484375,183.6264320576986L227.60875195312502,157.0787260093689L228.012134765625,149.5302203648885L228.617208984375,165.93087663014728L229.02059179687498,151.91574995422366L229.52482031249997,152.71540038045248L230.12989453125002,151.620768386364L230.43243164062503,151.0056709375779L230.93666015625,168.3031580657959L231.74342578125,157.84441713587444L232.14680859375,163.12326803588869L232.55019140625,152.90803167978922L233.457802734375,163.86241491699218L234.16372265625,175.59908063252766L234.466259765625,169.86228876749675L234.56710546875001,158.55967889404295L235.474716796875,163.71949343617757L236.48317382812502,155.77784513982135L237.99585937499998,150.62778992648919L238.3992421875,149.12675449816388L239.508544921875,152.68942120456697L239.60939062499997,150.22965915791195L240.0127734375,152.22179064559936L241.32376757812497,155.15126442082723L243.744064453125,155.22951606241864L245.86182421875003,156.62590386708578L245.962669921875,150.08257072385155L246.97112695312498,149.82063068215052L247.77789257812498,149.91102077198028L247.87873828125,149.3311261803309L248.181275390625,154.00130109532677L249.49226953125003,150.093153942585L249.6939609375,142.47426981862387L250.80326367187502,144.44477208709714L251.10580078125003,152.3811572672526L251.50918359375,161.09394292958578L252.31594921874998,150.98610249932605L253.021869140625,163.98389275868732L253.12271484374997,151.76556250635784L253.42525195312498,149.82887871964772L253.7277890625,153.47128506406148L254.9379375,153.29741359329225L255.54301171875,148.8155236762365L255.94639453124998,144.75647138341267L256.9548515625,136.69181793975832L257.257388671875,149.0403327782949L258.669228515625,150.6819035420815L258.971765625,142.9308234570821L259.475994140625,149.16099950853985L259.77853125,121.2522855987549L260.686142578125,158.18331215540567L261.7954453125,160.4252218068441L262.299673828125,150.05361465628943L262.50136523437504,145.00751421229043L264.92166210937495,148.39702336502074L265.728427734375,144.88154649480185L265.930119140625,152.13650625546774L266.23265625,129.02145430501304L266.83773046875,149.12651073328652L266.93857617187496,153.37130934588117L267.64449609375,148.71720170021058L268.45126171875,147.59811262257895L268.85464453125,148.66234501520793L269.25802734375,153.2324908809662L269.963947265625,151.43888695033394L270.165638671875,125.95905796305337L270.770712890625,144.7212656949361L271.67832421875,147.09962111854554L272.48508984375,136.70219077046713L272.68678125,150.64150327380497L272.989318359375,127.65045543924967L273.29185546875,149.74362237326304L273.392701171875,133.319075592041L274.09862109375,119.96057815043132L274.60284960937497,141.33622292836506L275.30876953125,148.7135799821218L276.21638085937496,148.87865146891278L276.619763671875,116.96770537312825L276.821455078125,132.01109414164225L277.72906640625,118.49484223429363L278.838369140625,132.80987976582844L279.84682617187497,138.52254537963867L280.04851757812503,114.11753643798829L280.7544375,138.47672621154788L281.258666015625,139.0234565556844L281.56120312499996,129.65361501057944L282.36796875,145.3563108317057L284.284037109375,136.10095296986898L285.39333984375,105.86771229044597L287.107716796875,133.6155051879883L287.511099609375,146.9252635561625L288.4187109375,118.78182612101237L288.922939453125,98.61002126057943L289.02378515625,116.61978649902342L289.124630859375,150.50257263390222L291.242390625,150.01711853599545L292.351693359375,136.4095712890625L292.65423046875003,106.01895868937176L293.2593046875,96.73916489664713L293.360150390625,98.59735411580405L294.26776171875,115.98999201456706L294.8728359375,92.7407651163737L294.973681640625,94.9382290242513L296.08298437499997,141.3438354873657L296.4863671875,112.84019122314453L296.990595703125,105.41183697509766L297.192287109375,90.49719632975258L298.0998984375,96.23502557373047L298.50328125,98.97250946044923L298.604126953125,93.93716409301759L298.805818359375,108.14034686279297L298.9066640625,89.20078328450523L299.10835546875,116.36667754109699L300.217658203125,88.58507874552407L300.419349609375,98.40112650553387L301.226115234375,96.31731407674155L301.3269609375,92.92279923502605L301.629498046875,133.1848912963867L305.15909765624997,90.6353613993327L307.27685742187504,88.37078425089516L308.083623046875,137.3328807373047L309.59630859375,106.88453541056316L310.503919921875,77.24325939941409L311.512376953125,98.67972315470378L312.319142578125,88.7195890197754L312.62167968750003,84.62700443522135L312.92421679687504,79.8886102294922L313.529291015625,88.14811018880206L314.03351953124996,82.22223347981772L314.134365234375,91.80438200887045L314.53774804687504,88.07369502766929L314.63859375,82.42342746988933L315.34451367187495,89.77547204589843L316.554662109375,89.18249396769208L318.571576171875,86.11947251383461L319.580033203125,79.72845119222005L321.39525585937497,71.24546030680338L322.10117578125,68.66334932454426L322.807095703125,69.0336840209961L323.613861328125,77.41032151285806L323.815552734375,76.8976453857422L324.218935546875,73.43361273193361L324.824009765625,75.85739782714843L325.22739257812503,74.2800909423828L326.3366953125,87.4785961710612L326.63923242187496,78.18182464599609L327.14346093750004,76.87866192626953L328.454455078125,60.4798445638021L330.87475195312504,60.27714723714192L333.295048828125,70.1462297973633L333.39589453125,65.9230198364258L334.4043515625,54.81156764729816L334.706888671875,60.33850024414064L335.2111171875,55.564838989257815L336.0178828125,52.73664868164063L337.02633984375,59.569965433756494L338.034796875,68.34538596598307L338.740716796875,63.81715207926433L341.766087890625,51.02129561360676L342.169470703125,54.13444490559895L342.27031640625,56.50467746988931L342.67369921875,57.45652730305988L346.001607421875,60.8162237955729L346.404990234375,56.523101013183606L346.50583593749997,56.894233398437486L347.010064453125,121.40004019165039L348.32105859375,75.49963439941405L349.12782421875,39.68045420328778L349.430361328125,44.11221376546222L351.447275390625,71.27902459716798L352.254041015625,58.14651277669271L352.75826953125005,49.95134181722005L352.9599609375,54.17241949462889L353.262498046875,46.05490047200522L353.464189453125,60.73518935139975L353.56503515624996,57.93130554199217L354.674337890625,62.24814422607423L354.77518359375,42.96489182535808L354.876029296875,57.407016906738264L355.077720703125,48.63059159342449L355.279412109375,45.95222871907551L355.783640625,47.684118489583355L355.98533203125,51.69559576416015L356.79209765625,52.290387817382815L359.514931640625,40.75736476643881L359.61577734375,52.749227620442724L360.725080078125,37.84615346272787L360.82592578124996,40.734684326171866L361.8343828125,50.39192681884767L361.935228515625,56.18893076578775L362.237765625,52.81951627604169L362.94368554687503,41.45934625244141L363.64960546875,47.004986185709626L364.96059960937504,92.35169240315756L365.76736523437495,57.571593912760406L365.8682109375,57.39180712890624L366.574130859375,45.86055586751304L366.87666796875,136.0589391225179L366.977513671875,40.09998482259117L367.078359375,41.00482470703124L367.380896484375,39.58687150065104L369.29696484375,51.100773030598944L370.10373046875,46.840547241210956L370.204576171875,50.72668766276041L370.50711328125,54.802739379882794L371.213033203125,41.60418046061198L371.5155703125,41.975949462890604L371.71726171874997,45.20382021077474L372.01979882812503,130.8959923095703L372.423181640625,46.924741760253916L373.33079296875,43.32721128336587L373.93586718750004,53.8752650756836L374.440095703125,52.121201090494814L374.843478515625,62.0691474609375L375.04516992187496,135.39234932454428L376.053626953125,32.703123942057296L376.15447265625,50.17768601481118L376.55785546875,48.01565022786459L377.06208398437496,45.38363000488282L377.1629296875,46.5520906982422L377.263775390625,51.94974401855468L377.56631250000004,66.41652842203779L378.473923828125,46.134646341959616L378.57476953125,44.201194417317694L378.675615234375,47.68203222656251L379.17984375,48.389651224772116L379.684072265625,46.87682674153646L379.986609375,33.484544494628885L380.490837890625,36.89839178466797L380.69252929687497,57.484293009440094L380.99506640625,51.79561366780598L381.700986328125,30.616086242675763L382.91113476562504,61.51936346435547L384.42382031249997,55.863351013183596L385.63396875,39.25188055419924L386.64242578125,38.05494083658856L387.04580859375,52.63994425455731L387.65088281249996,50.138430521647116L388.356802734375,65.82014099121092L388.4576484375,45.441592834472665L389.365259765625,116.32038474527997L389.46610546875,44.727308532714865L391.38217382812496,131.62957837931316L391.48301953125,47.2468392944336L392.390630859375,52.88862373860676L392.592322265625,49.28153633626301L395.11346484375,47.5199710083008L395.416001953125,53.60033856201172L395.7185390625,35.02493526204428L396.32361328125,50.27857063802082L396.72699609375,39.28042860921226L396.827841796875,64.87996502685549L398.54221875,57.50816231282552L398.844755859375,46.07622330729168L399.55067578125,62.80591278076173L399.853212890625,47.36474383544922L400.054904296875,47.77348264567059L400.65997851562497,68.17601515706379L401.97097265625,47.30364394124347L402.9794296875,55.30279821777342L403.281966796875,46.897436258951835L403.58450390624995,123.18328309631349L404.39126953125,49.0054746500651L405.298880859375,148.95622298971813L406.81156640625,48.56855594889324L408.122560546875,80.75134134928385L411.75300585937504,43.30309653727215L411.8538515625,54.30928448486327L412.45892578125,35.35298478190104L413.064,46.0885721435547L413.769919921875,38.8955591023763L413.870765625,120.64959911092123L413.97161132812505,68.43492653401692L414.173302734375,46.80313256835939L414.57668554687496,57.3825033162435L414.980068359375,53.718572916666645L415.383451171875,145.2685104141235L415.484296875,53.631218322753924L415.58514257812504,51.24974908447265L416.08937109375006,47.32613262939453L416.2910625,46.526948160807294L417.29951953125,54.338108662923176L418.00543945312495,147.92197139994303L420.829119140625,53.742963785807305L421.33334765625,147.52114524078368L422.240958984375,73.78259391276042L422.54349609375004,74.11677183024086L422.74518750000004,52.022525451660165L423.451107421875,139.67988349151614L423.95533593749997,45.6259893391927L424.7621015625,47.33779882812499L425.165484375,53.14109224446614L425.26633007812495,54.6619856567383L425.56886718749996,55.433995015462244L425.77055859375,53.2998936767578L426.476478515625,147.59721881802875L427.68662695312497,76.93035062662763L427.88831835937503,75.74855165608724L430.106923828125,46.80021026611329L430.4094609375,63.92283050537108L433.43483203125,68.93253094482421L434.24159765625,146.71116033426918L437.6703515625,34.82402506510418L438.17458007812496,26.432515279134137L439.2838828125,52.754658040364575L440.191494140625,48.64811006673175L440.8974140625,74.16611348470052L441.09910546874994,79.77108919270835L441.40164257812495,75.37701275634764L441.60333398437496,73.11492071533203L442.10756250000003,55.04486861165365L442.208408203125,55.843585205078114L443.015173828125,92.76064214070637L443.11601953125,48.817465535481766L444.1244765625,56.22161299641926L444.52785937500005,45.018863789876285L445.53631640625,51.900647806803384L445.93969921875,56.079401957193994L446.34308203125,66.01091133626304L447.14984765625,61.59229062906901L447.65407617187503,52.920439249674466L449.16676171874997,52.72663922119142L449.267607421875,56.00537030029298L449.87268164062505,53.44169053141275L450.5786015625,55.82859018961588L450.981984375,55.217790669759104L451.99044140625,51.48341054280599L452.09128710937495,143.03469989267987L452.1921328125,54.04531852213541L452.292978515625,56.02751383463542L452.89805273437497,44.4416669108073L453.09974414062503,63.11965759277345L453.40228125000004,54.34303285725912L453.8056640625,58.436771789550775L454.108201171875,55.76213657633465L455.21750390625004,56.724747538248685L456.42765234374997,49.00151688639322L457.335263671875,46.13450061035156L457.43610937499994,50.82908329264324L457.940337890625,56.803565327962254L458.24287499999997,56.037461934407574L458.84794921875,55.27422715250649L459.65471484374996,50.17177237955728L460.46148046875,45.89846142578125L460.764017578125,45.0966307779948L461.369091796875,48.42214170328775L461.46993749999996,15.634838582356767L462.276703125,50.14606225585936L462.579240234375,51.89995749918618L462.6800859375,52.98624857584635L463.890234375,47.55015279134116L465.201228515625,146.36770305252074L465.30207421874996,144.9983086725871L465.402919921875,57.504051147460935L465.50376562499997,56.32482932535808L466.91560546875,54.921288208007795L469.33590234375,71.76089766438801L469.638439453125,58.125228291829444L469.840130859375,61.111468363444L470.04182226562494,138.17925348409014L470.34435937499995,147.91766320927937L470.7477421875,59.89801495361329L471.05027929687503,146.51869106547036L471.151125,146.01872522735596L472.96634765625004,96.80902786254882L473.9748046875,51.76465720621745L475.184953125,51.87844291178385L475.68918164062495,53.5803273111979L475.79002734375,55.53721134440102L476.092564453125,64.2557812093099L477.2018671875,51.99536568196615L477.30271289062495,59.47845365397136L478.512861328125,30.012527282714835L478.61370703125004,47.81196346028645L478.81539843750005,42.006392028808584L478.91624414062494,134.32388352457684L479.21878124999995,66.85271079508462L479.319626953125,129.7875346883138L479.42047265624996,49.24797204589845L480.12639257812504,135.62821593221028L480.328083984375,106.90516026814777L482.04246093750004,141.03337443033854L482.24415234375,143.82144252522787L482.34499804687505,52.458470052083335L482.748380859375,145.28673165893554L483.05091796875,141.50213644663492L484.765294921875,139.45964084625246L485.370369140625,146.63795033518474L486.37882617187506,99.36500303141275L487.99235742187506,56.46835961914062L488.89996874999997,142.08479634348552L489.10166015625,148.28615205192568L489.30335156250004,56.77495591227214L489.807580078125,58.33897821044921L490.1101171875,57.93887591552736L491.017728515625,49.299829488118476L491.320265625,51.856445109049474L491.622802734375,58.07926147460936L494.34563671875003,53.78508022054037L494.95071093750005,58.508333679199225L495.25324804687494,133.63404570007324L495.656630859375,51.468937093098944L496.26170507812503,53.35792553710938L496.56424218750004,49.57081357828775L497.270162109375,49.316749694824225L497.47185351562496,60.79563728841148L497.77439062499997,47.08770804850263L499.488767578125,53.13703476969401L499.892150390625,58.490654134114585L500.698916015625,53.668387552897144L500.79976171875,52.28149051920572L501.707373046875,57.906914672851556L502.312447265625,66.50504119873048L502.41329296875,48.11321370442708L502.51413867187495,62.89173335774739L502.81667578124996,58.29832676188151L503.42175,54.80019291178386L504.228515625,56.14388435872398L505.03528125,47.7524589436849L505.4386640625,132.7280437978109L505.64035546875004,32.73875148518882L506.54796679687496,54.08982802327472L507.0521953125,59.788194681803375L507.65726953125,60.73985276285807L508.26234375,141.8446603749593L508.968263671875,43.42420717366536L510.78348632812504,145.47299055608113L512.6995546874999,59.14221248372394L513.1029375,52.32437396240236L513.5063203125,127.5575477040609L515.220697265625,55.05673423258463L515.825771484375,51.948746907552085L516.4308457031251,123.36217631530762L516.7333828124999,51.57289742024738L518.54860546875,148.55990408388774L518.95198828125,53.769034403483076L519.657908203125,40.06879058837889L519.9604453124999,52.50884716796876L521.069748046875,53.46562886555991L522.0782050781249,129.7419379526774L522.17905078125,121.45547381083172L522.481587890625,117.67090256754557L523.590890625,128.81240614827473L525.103576171875,139.51963145446777L525.204421875,48.0474887491862L526.515416015625,47.256564961751316L527.120490234375,43.02669736735026L527.322181640625,45.07670389811199L527.42302734375,142.45068718465168L528.0281015625,54.69811175537111L529.0365585937501,147.90455024083457L529.3390957031249,48.32040570068357L529.6416328125,138.8176940714518L529.7424785156251,57.27800608317056L530.145861328125,149.11865560785927L531.154318359375,113.95667942301434L532.4653125,145.46640578842164L532.5661582031249,147.0700282541911L534.28053515625,111.83071220906577L535.389837890625,145.09143788146972L536.29744921875,43.81581868489583L536.8016777343751,146.25012449010214L537.30590625,50.039762552897145L537.9109804687499,139.2023756612142L538.818591796875,133.70496522013346L539.625357421875,148.27693261019388L540.53296875,53.80549798583983L541.6422714843751,48.36117987060547L542.1465000000001,141.4652615559896L542.4490371093749,49.88197357177736L544.062568359375,54.41480183919272L544.869333984375,131.80608811950682L545.272716796875,35.62842519124347L545.57525390625,48.780349995931L545.877791015625,149.3433467823664L545.97863671875,49.14304528808592L546.78540234375,142.17115286763507L546.98709375,127.38872338867189L548.096396484375,147.74614190038048L548.903162109375,42.99130759684243L550.01246484375,119.47779809570311L550.41584765625,51.32566758219402L551.22261328125,52.99519189453123L553.542064453125,144.58710824457802L554.147138671875,137.6598967132568L554.5505214843749,54.143986490885425L556.06320703125,137.80278176116946L556.66828125,34.7808271484375L556.970818359375,50.518728658040345L557.172509765625,35.74980428059898L557.8784296875,43.265965657552066L558.180966796875,46.56773767089842L558.584349609375,143.0371164487203L558.987732421875,47.85073573811851L559.0885781249999,43.571503479003894L559.391115234375,122.92956244913736L560.702109375,49.82593593343097L560.9038007812501,42.635269938151026L561.1054921875,45.39498173014324L561.508875,56.06869451904299L561.9122578125,143.4124577929179L562.11394921875,40.549612854003904L562.92071484375,143.56381157302857L563.929171875,41.45999820963542L565.34101171875,126.10528812662761L565.643548828125,57.936007303873716L565.9460859375,48.038990295410144L567.6604628906249,42.241257690429684L569.1731484375,139.5881924235026L569.677376953125,53.8247882486979L569.77822265625,56.21844525146486L570.18160546875,44.530394449869796L570.58498828125,56.459953206380206L570.685833984375,54.07356744384767L570.98837109375,146.0528599802653L571.492599609375,54.32281451416014L571.5934453125,54.34029463704426L572.60190234375,51.31922471110026L573.40866796875,50.67926352945963L573.81205078125,45.5348764038086L574.0137421875,140.07569053904214L574.6188164062501,142.7277047551473L575.4255820312501,54.67105936686197L575.526427734375,143.40183472569782L576.131501953125,45.574607442220035L576.4340390625,51.61835801188151L577.84587890625,145.24200787480672L578.148416015625,53.906605041503894L578.24926171875,52.36629864501955L578.551798828125,50.108570882161466L580.367021484375,47.403025227864596L580.7704042968751,45.91347178141276L581.47632421875,40.21203708902994L582.0813984375001,147.78736069552104L582.48478125,145.01673269526162L582.585626953125,49.31018410237631L583.89662109375,145.32485389709473L584.70338671875,132.6357784322103L585.3084609375001,51.901292093912765L585.610998046875,49.306387410481754L585.91353515625,116.83363996378579L586.1152265625001,51.371258565266935L586.31691796875,49.106919189453116L587.93044921875,44.731925923665365L588.132140625,110.12227372233072L588.3338320312499,33.23996083577474L588.434677734375,145.23709135055543L588.5355234375,46.51037310791017L589.241443359375,144.89867810821534L589.3422890625001,38.29957051595053L591.15751171875,51.93249399820964L591.460048828125,49.474906840006504L593.17442578125,46.999064880371094L594.485419921875,47.69454213460287L595.7964140625,134.21315818277998L595.99810546875,35.1780301513672L597.9141738281251,142.04694447580974L598.317556640625,137.13955913035073L599.0234765625,132.25078236897787L599.426859375,51.22837255859374L599.931087890625,36.151279520670556L602.8556132812499,51.25310091145834L603.0573046875,137.53409677886964L604.06576171875,55.29824985758465L604.1666074218749,57.6735293375651L607.393669921875,53.118250732421856L609.813966796875,54.44926352945964L611.024115234375,52.31727146402994L611.225806640625,56.43871474202472L611.73003515625,55.44459507242838L612.7384921875,141.46607266743976L613.041029296875,146.36964502207437L613.141875,53.15555802408855L613.948640625,144.26816695022583L614.15033203125,123.74014082845054L614.654560546875,61.35238572184246L615.259634765625,144.80048424657184L617.3773945312499,132.88660170491534L618.3858515625,48.43609358723957L618.789234375,47.920633219401026L619.1926171875,135.51587220255536L619.8985371093751,36.605992818196604L620.301919921875,44.62047192382814L620.402765625,111.42500691731769L620.60445703125,134.10309822082522L620.705302734375,72.95498411051432L621.915451171875,75.42024135335286L622.8230625,136.7923219350179L623.9323652343751,135.961087059021L625.0416679687501,140.043923924764L625.2433593750001,40.351126403808586L625.747587890625,45.70171608479819L625.949279296875,148.39804875946044L626.4535078125,143.7063682454427L627.05858203125,132.10901619466145L627.764501953125,52.56009100341796L628.167884765625,49.78256160481772L629.0754960937501,52.3808641357422L630.5881816406251,60.292418375651046L630.6890273437499,55.008888244628906L631.09241015625,47.723880208333334L631.4957929687499,139.47994068400064L631.798330078125,59.96770534261066L633.91608984375,141.9456044413249L634.622009765625,54.01342631022134L634.823701171875,54.04440578206382L635.025392578125,48.00016432698567L637.14315234375,149.15249542204538L637.243998046875,60.80805515543619L637.54653515625,142.45022602081298L637.7482265625,146.75122406260172L638.151609375,138.95669134521484L638.252455078125,61.15401432291666L638.7566835937499,146.7861936562856L638.958375,146.93282122611998L639.16006640625,133.55361911010743L639.664294921875,48.754463460286466L641.58036328125,53.76779184977214L642.1854375,46.819347127278654L642.38712890625,138.5716128285726L642.689666015625,147.9717679862976L643.59727734375,58.10682775878906L644.706580078125,125.69091563924155L645.61419140625,139.59122306569418L645.715037109375,58.16699190266926L646.118419921875,144.81446105829878L647.126876953125,149.70229380003613L647.832796875,148.57266255060833L648.2361796875,51.94384572347006L648.942099609375,142.90507450358075L649.950556640625,90.02407099405923L650.152248046875,62.349381673177085L650.2530937500001,148.9537437547048L650.6564765625,53.50365714518231L650.85816796875,49.48314451090495L651.0598593750001,40.320875590006494L651.160705078125,53.32738326009117L651.3623964843749,140.01315346272787L652.47169921875,122.85838981628417L655.0936875000001,149.03498912620543L655.9004531249999,138.6481161702474L656.202990234375,148.07059918403627L656.4046816406251,49.76132314046224L656.50552734375,54.86620933024086L657.211447265625,135.07811170959474L657.614830078125,53.17036895751954L657.816521484375,115.31127389526365L658.11905859375,51.79506142171224L660.035126953125,48.0552432047526L660.7410468749999,139.65950599416095L660.9427382812501,47.40165995279946L661.245275390625,50.0737793782552L662.253732421875,54.48285083007811L663.463880859375,127.39976447550455L665.9850234375,129.86778294881185L669.918005859375,132.3975340983073L670.926462890625,142.02250183359783L672.338302734375,69.58877571614583L672.84253125,130.92185583496095L673.04422265625,140.73932927195233L674.3552167968751,134.58231168619793L675.968748046875,149.06664476394656L676.2712851562501,141.7264567006429L676.977205078125,133.90214775594075L677.2797421875,145.9734242693583L677.985662109375,56.05610024007162L678.69158203125,130.2318051656087L678.994119140625,101.98972900390626L679.7000390625,150.06320280138652L680.002576171875,149.0576055692037L680.70849609375,137.86504175567626L680.9101875,143.74288024520874L681.212724609375,142.27768363189696L681.3135703125,144.94464109039308L681.414416015625,148.261771010081L681.51526171875,130.0737438964844L682.221181640625,142.73988389078778L682.9271015625001,139.03237398783367L683.8347128906249,141.20388520558674L684.238095703125,140.85724723561603L684.641478515625,131.76835705566404L686.658392578125,128.98712875874836L687.8685410156249,142.03199356333414L688.97784375,142.7615106531779L690.692220703125,50.141882059733085L691.700677734375,141.87878458150226L692.4065976562499,135.58304680379234L692.709134765625,126.0431892038981L693.7175917968749,148.87582084814707L693.8184375,140.923220509847L694.02012890625,48.89055377197264L694.625203125,138.72001650238036L695.331123046875,113.21363997395831L697.953111328125,130.5088102722168L699.26410546875,134.0008042195638L700.6759453125001,53.742112406412765L701.180173828125,144.83638743336994L701.4827109375001,107.55654604085288L702.2894765625,102.1244233601888L702.89455078125,144.54279864501953L704.003853515625,145.91432578786217L704.91146484375,50.13566929117839L705.6173847656249,134.70719600423178L706.2224589843751,90.53030041503905L706.625841796875,142.6984242070516L706.8275332031251,115.51646399943036L706.92837890625,52.43513765462237L709.95375,63.0238198852539L710.3571328124999,29.627657775878887L710.457978515625,37.042811808268226L711.264744140625,56.72667272949219L712.97912109375,50.323532674153626L713.5841953125,133.12575110880533L713.78588671875,49.306571492513L713.886732421875,137.39236416117353L714.99603515625,99.1662826436361L715.298572265625,107.95756491088868L716.710412109375,149.58043664868674L717.113794921875,51.1491405843099L717.3154863281251,58.06886083984375L718.525634765625,144.2114902979533L719.332400390625,149.55248266569774L719.83662890625,58.40692749023436L720.0383203125,137.1583623428345L720.24001171875,99.44554275512694L722.862,145.7413323020935L724.576376953125,141.86769268035889L725.786525390625,147.42446094767254L726.593291015625,50.41599554443358L727.198365234375,144.82414310201008L728.1059765625,148.9294425296783L728.206822265625,43.48635786946616L728.610205078125,56.139489400227866L729.013587890625,110.67290142822264L729.416970703125,121.70845812988281L729.7195078125,49.25545037841796L729.9211992187501,143.5588936106364L730.425427734375,146.27290895589192L731.2321933593751,140.14682482147217L733.047416015625,149.6338219957352L734.055873046875,124.65847430928547L734.2575644531249,46.33056331380209L734.963484375,109.5606432800293L735.77025,134.64351704406738L735.871095703125,126.48405032857261L736.1736328124999,54.94769630940756L737.58547265625,43.8443360595703L738.9973125,146.76515245691934L739.4006953125,126.20640476989746L739.501541015625,41.75954569498699L739.6023867187499,122.17133239746094L740.913380859375,139.1038515065511L741.5184550781249,57.87023632812501L742.02268359375,134.73181026458738L742.123529296875,127.19654174804687L742.325220703125,127.65494243876138L742.6277578125,145.6362195447286L742.8294492187499,132.32871426391603L743.131986328125,146.31800857416786L744.2412890625,109.17559352620442L746.8632773437499,149.00807875410717L748.6785,142.14590007273355L750.191185546875,149.50454691378278L750.49372265625,58.22651942952476L750.594568359375,129.0254542541504L750.997951171875,54.59410540771485L751.199642578125,118.13665695190429L752.2080996093749,62.695103068033845L753.619939453125,142.51272666422526L755.031779296875,121.11181950378416L755.4351621093749,132.15898487854002L755.73769921875,134.37354732259115L755.838544921875,122.14657528177898L758.5613789062501,144.92634410349527L759.166453125,143.3467524922689L759.4689902343749,50.65606919352214L760.3766015625,129.24371418253583L760.98167578125,47.82438132731121L761.485904296875,46.538752421061176L761.5867499999999,83.34406005859377L761.687595703125,111.56466765340171L761.889287109375,62.116893737792985L762.7968984375,55.4883682454427L763.099435546875,147.28266121673582L763.301126953125,138.75628449757895L763.7045097656251,142.97499020131428L764.914658203125,59.77431182861329L765.116349609375,62.55750941975912L765.41888671875,62.8560214436849L765.923115234375,132.34962291463216L766.326498046875,55.267331746419266L767.940029296875,128.71520700073242L768.0408749999999,134.1396442565918L768.4442578125,138.75683290863037L769.3518691406249,110.53375458780927L771.06624609375,134.5765821329753L771.368783203125,46.378831156412765L772.578931640625,140.0872886657715L773.48654296875,144.06729989751182L773.789080078125,85.06901607259113L776.209376953125,128.27236507670085L776.612759765625,135.00843186696372" style="fill: none;" fill="none"></path></g></g></g></g></g></g><g transform="translate(82, 377)" clip-path="url(#clip_1)"><clipPath id="clip_1"><rect width="806" height="23"></rect></clipPath><g><g><line x1="0" y1="0" x2="0" y2="5" style="visibility: inherit;" fill="rgb(0, 0, 0)" stroke="rgb(204, 204, 204)" stroke-width="1px"></line><line x1="100.845703125" y1="0" x2="100.845703125" y2="5" style="visibility: inherit;" fill="rgb(0, 0, 0)" stroke="rgb(204, 204, 204)" stroke-width="1px"></line><line x1="201.69140625" y1="0" x2="201.69140625" y2="5" style="visibility: inherit;" fill="rgb(0, 0, 0)" stroke="rgb(204, 204, 204)" stroke-width="1px"></line><line x1="302.537109375" y1="0" x2="302.537109375" y2="5" style="visibility: inherit;" fill="rgb(0, 0, 0)" stroke="rgb(204, 204, 204)" stroke-width="1px"></line><line x1="403.3828125" y1="0" x2="403.3828125" y2="5" style="visibility: inherit;" fill="rgb(0, 0, 0)" stroke="rgb(204, 204, 204)" stroke-width="1px"></line><line x1="504.228515625" y1="0" x2="504.228515625" y2="5" style="visibility: inherit;" fill="rgb(0, 0, 0)" stroke="rgb(204, 204, 204)" stroke-width="1px"></line><line x1="605.07421875" y1="0" x2="605.07421875" y2="5" style="visibility: inherit;" fill="rgb(0, 0, 0)" stroke="rgb(204, 204, 204)" stroke-width="1px"></line><line x1="705.919921875" y1="0" x2="705.919921875" y2="5" style="visibility: inherit;" fill="rgb(0, 0, 0)" stroke="rgb(204, 204, 204)" stroke-width="1px"></line><line x1="806.765625" y1="0" x2="806.765625" y2="5" style="visibility: inherit;" fill="rgb(0, 0, 0)" stroke="rgb(204, 204, 204)" stroke-width="1px"></line></g><g transform="translate(0, 8)"><text x="0" y="0" dx="0em" dy="0.95em" style="text-anchor: middle; visibility: hidden; font-family: Roboto, sans-serif; font-size: 12px; font-weight: 200;" fill="rgb(33, 33, 33)" stroke="none" stroke-width="1px">-1k</text><text x="100.845703125" y="0" dx="0em" dy="0.95em" style="text-anchor: middle; visibility: inherit; font-family: Roboto, sans-serif; font-size: 12px; font-weight: 200;" fill="rgb(33, 33, 33)" stroke="none" stroke-width="1px">0</text><text x="201.69140625" y="0" dx="0em" dy="0.95em" style="text-anchor: middle; visibility: inherit; font-family: Roboto, sans-serif; font-size: 12px; font-weight: 200;" fill="rgb(33, 33, 33)" stroke="none" stroke-width="1px">1k</text><text x="302.537109375" y="0" dx="0em" dy="0.95em" style="text-anchor: middle; visibility: inherit; font-family: Roboto, sans-serif; font-size: 12px; font-weight: 200;" fill="rgb(33, 33, 33)" stroke="none" stroke-width="1px">2k</text><text x="403.3828125" y="0" dx="0em" dy="0.95em" style="text-anchor: middle; visibility: inherit; font-family: Roboto, sans-serif; font-size: 12px; font-weight: 200;" fill="rgb(33, 33, 33)" stroke="none" stroke-width="1px">3k</text><text x="504.228515625" y="0" dx="0em" dy="0.95em" style="text-anchor: middle; visibility: inherit; font-family: Roboto, sans-serif; font-size: 12px; font-weight: 200;" fill="rgb(33, 33, 33)" stroke="none" stroke-width="1px">4k</text><text x="605.07421875" y="0" dx="0em" dy="0.95em" style="text-anchor: middle; visibility: inherit; font-family: Roboto, sans-serif; font-size: 12px; font-weight: 200;" fill="rgb(33, 33, 33)" stroke="none" stroke-width="1px">5k</text><text x="705.919921875" y="0" dx="0em" dy="0.95em" style="text-anchor: middle; visibility: inherit; font-family: Roboto, sans-serif; font-size: 12px; font-weight: 200;" fill="rgb(33, 33, 33)" stroke="none" stroke-width="1px">6k</text><text x="806.765625" y="0" dx="0em" dy="0.95em" style="text-anchor: middle; visibility: hidden; font-family: Roboto, sans-serif; font-size: 12px; font-weight: 200;" fill="rgb(33, 33, 33)" stroke="none" stroke-width="1px">7k</text></g><line x1="0" y1="0" x2="806.765625" y2="0" fill="rgb(0, 0, 0)" stroke="rgb(204, 204, 204)" stroke-width="1px"></line></g></g></g></g></svg>