<svg viewBox="0 0 889.5 400" xmlns="http://www.w3.org/2000/svg"><g><g><g><g><g><line x1="82.734375" y1="377" x2="77.734375" y2="377" style="visibility: inherit;" fill="rgb(0, 0, 0)" stroke="rgb(204, 204, 204)" stroke-width="1px"></line><line x1="82.734375" y1="342.7272727272727" x2="77.734375" y2="342.7272727272727" style="visibility: inherit;" fill="rgb(0, 0, 0)" stroke="rgb(204, 204, 204)" stroke-width="1px"></line><line x1="82.734375" y1="308.45454545454544" x2="77.734375" y2="308.45454545454544" style="visibility: inherit;" fill="rgb(0, 0, 0)" stroke="rgb(204, 204, 204)" stroke-width="1px"></line><line x1="82.734375" y1="274.1818181818182" x2="77.734375" y2="274.1818181818182" style="visibility: inherit;" fill="rgb(0, 0, 0)" stroke="rgb(204, 204, 204)" stroke-width="1px"></line><line x1="82.734375" y1="239.9090909090909" x2="77.734375" y2="239.9090909090909" style="visibility: inherit;" fill="rgb(0, 0, 0)" stroke="rgb(204, 204, 204)" stroke-width="1px"></line><line x1="82.734375" y1="205.63636363636363" x2="77.734375" y2="205.63636363636363" style="visibility: inherit;" fill="rgb(0, 0, 0)" stroke="rgb(204, 204, 204)" stroke-width="1px"></line><line x1="82.734375" y1="171.36363636363637" x2="77.734375" y2="171.36363636363637" style="visibility: inherit;" fill="rgb(0, 0, 0)" stroke="rgb(204, 204, 204)" stroke-width="1px"></line><line x1="82.734375" y1="137.0909090909091" x2="77.734375" y2="137.0909090909091" style="visibility: inherit;" fill="rgb(0, 0, 0)" stroke="rgb(204, 204, 204)" stroke-width="1px"></line><line x1="82.734375" y1="102.81818181818181" x2="77.734375" y2="102.81818181818181" style="visibility: inherit;" fill="rgb(0, 0, 0)" stroke="rgb(204, 204, 204)" stroke-width="1px"></line><line x1="82.734375" y1="68.54545454545453" x2="77.734375" y2="68.54545454545453" style="visibility: inherit;" fill="rgb(0, 0, 0)" stroke="rgb(204, 204, 204)" stroke-width="1px"></line><line x1="82.734375" y1="34.27272727272729" x2="77.734375" y2="34.27272727272729" style="visibility: inherit;" fill="rgb(0, 0, 0)" stroke="rgb(204, 204, 204)" stroke-width="1px"></line><line x1="82.734375" y1="0" x2="77.734375" y2="0" style="visibility: inherit;" fill="rgb(0, 0, 0)" stroke="rgb(204, 204, 204)" stroke-width="1px"></line></g><g transform="translate(72.734375, 0)"><text x="0" y="377" dx="0em" dy="0.3em" style="text-anchor: end; visibility: hidden; font-family: Roboto, sans-serif; font-size: 12px; font-weight: 200;" fill="rgb(33, 33, 33)" stroke="none" stroke-width="1px">-1.2e+3</text><text x="0" y="342.7272727272727" dx="0em" dy="0.3em" style="text-anchor: end; visibility: inherit; font-family: Roboto, sans-serif; font-size: 12px; font-weight: 200;" fill="rgb(33, 33, 33)" stroke="none" stroke-width="1px">-1e+3</text><text x="0" y="308.45454545454544" dx="0em" dy="0.3em" style="text-anchor: end; visibility: inherit; font-family: Roboto, sans-serif; font-size: 12px; font-weight: 200;" fill="rgb(33, 33, 33)" stroke="none" stroke-width="1px">-800</text><text x="0" y="274.1818181818182" dx="0em" dy="0.3em" style="text-anchor: end; visibility: inherit; font-family: Roboto, sans-serif; font-size: 12px; font-weight: 200;" fill="rgb(33, 33, 33)" stroke="none" stroke-width="1px">-600</text><text x="0" y="239.9090909090909" dx="0em" dy="0.3em" style="text-anchor: end; visibility: inherit; font-family: Roboto, sans-serif; font-size: 12px; font-weight: 200;" fill="rgb(33, 33, 33)" stroke="none" stroke-width="1px">-400</text><text x="0" y="205.63636363636363" dx="0em" dy="0.3em" style="text-anchor: end; visibility: inherit; font-family: Roboto, sans-serif; font-size: 12px; font-weight: 200;" fill="rgb(33, 33, 33)" stroke="none" stroke-width="1px">-200</text><text x="0" y="171.36363636363637" dx="0em" dy="0.3em" style="text-anchor: end; visibility: inherit; font-family: Roboto, sans-serif; font-size: 12px; font-weight: 200;" fill="rgb(33, 33, 33)" stroke="none" stroke-width="1px">0</text><text x="0" y="137.0909090909091" dx="0em" dy="0.3em" style="text-anchor: end; visibility: inherit; font-family: Roboto, sans-serif; font-size: 12px; font-weight: 200;" fill="rgb(33, 33, 33)" stroke="none" stroke-width="1px">200</text><text x="0" y="102.81818181818181" dx="0em" dy="0.3em" style="text-anchor: end; visibility: inherit; font-family: Roboto, sans-serif; font-size: 12px; font-weight: 200;" fill="rgb(33, 33, 33)" stroke="none" stroke-width="1px">400</text><text x="0" y="68.54545454545453" dx="0em" dy="0.3em" style="text-anchor: end; visibility: inherit; font-family: Roboto, sans-serif; font-size: 12px; font-weight: 200;" fill="rgb(33, 33, 33)" stroke="none" stroke-width="1px">600</text><text x="0" y="34.27272727272729" dx="0em" dy="0.3em" style="text-anchor: end; visibility: inherit; font-family: Roboto, sans-serif; font-size: 12px; font-weight: 200;" fill="rgb(33, 33, 33)" stroke="none" stroke-width="1px">800</text><text x="0" y="0" dx="0em" dy="0.3em" style="text-anchor: end; visibility: hidden; font-family: Roboto, sans-serif; font-size: 12px; font-weight: 200;" fill="rgb(33, 33, 33)" stroke="none" stroke-width="1px">1e+3</text></g><line x1="82.734375" y1="0" x2="82.734375" y2="377" fill="rgb(0, 0, 0)" stroke="rgb(204, 204, 204)" stroke-width="1px"></line></g></g><g transform="translate(82, 0)" clip-path="url(#clip_0)"><clipPath id="clip_0"><rect width="806" height="377"></rect></clipPath><g><g><g><line x1="0" y1="0" x2="0" y2="377" fill="rgb(0, 0, 0)" stroke="rgb(66, 66, 66)" stroke-width="1px" opacity="0.25"></line><line x1="57.62611607142857" y1="0" x2="57.62611607142857" y2="377" fill="rgb(0, 0, 0)" stroke="rgb(66, 66, 66)" stroke-width="1px" opacity="0.25"></line><line x1="115.25223214285714" y1="0" x2="115.25223214285714" y2="377" fill="rgb(0, 0, 0)" stroke="rgb(66, 66, 66)" stroke-width="1px" opacity="0.25"></line><line x1="172.8783482142857" y1="0" x2="172.8783482142857" y2="377" fill="rgb(0, 0, 0)" stroke="rgb(66, 66, 66)" stroke-width="1px" opacity="0.25"></line><line x1="230.50446428571428" y1="0" x2="230.50446428571428" y2="377" fill="rgb(0, 0, 0)" stroke="rgb(66, 66, 66)" stroke-width="1px" opacity="0.25"></line><line x1="288.1305803571429" y1="0" x2="288.1305803571429" y2="377" fill="rgb(0, 0, 0)" stroke="rgb(66, 66, 66)" stroke-width="1px" opacity="0.25"></line><line x1="345.7566964285714" y1="0" x2="345.7566964285714" y2="377" fill="rgb(0, 0, 0)" stroke="rgb(66, 66, 66)" stroke-width="1px" opacity="0.25"></line><line x1="403.3828125" y1="0" x2="403.3828125" y2="377" fill="rgb(0, 0, 0)" stroke="rgb(66, 66, 66)" stroke-width="1px" opacity="0.25"></line><line x1="461.00892857142856" y1="0" x2="461.00892857142856" y2="377" fill="rgb(0, 0, 0)" stroke="rgb(66, 66, 66)" stroke-width="1px" opacity="0.25"></line><line x1="518.6350446428572" y1="0" x2="518.6350446428572" y2="377" fill="rgb(0, 0, 0)" stroke="rgb(66, 66, 66)" stroke-width="1px" opacity="0.25"></line><line x1="576.2611607142858" y1="0" x2="576.2611607142858" y2="377" fill="rgb(0, 0, 0)" stroke="rgb(66, 66, 66)" stroke-width="1px" opacity="0.25"></line><line x1="633.8872767857142" y1="0" x2="633.8872767857142" y2="377" fill="rgb(0, 0, 0)" stroke="rgb(66, 66, 66)" stroke-width="1px" opacity="0.25"></line><line x1="691.5133928571428" y1="0" x2="691.5133928571428" y2="377" fill="rgb(0, 0, 0)" stroke="rgb(66, 66, 66)" stroke-width="1px" opacity="0.25"></line><line x1="749.1395089285714" y1="0" x2="749.1395089285714" y2="377" fill="rgb(0, 0, 0)" stroke="rgb(66, 66, 66)" stroke-width="1px" opacity="0.25"></line><line x1="806.765625" y1="0" x2="806.765625" y2="377" fill="rgb(0, 0, 0)" stroke="rgb(66, 66, 66)" stroke-width="1px" opacity="0.25"></line></g><g><line x1="0" y1="377" x2="806.765625" y2="377" fill="rgb(0, 0, 0)" stroke="rgb(66, 66, 66)" stroke-width="1px" opacity="0.25"></line><line x1="0" y1="342.7272727272727" x2="806.765625" y2="342.7272727272727" fill="rgb(0, 0, 0)" stroke="rgb(66, 66, 66)" stroke-width="1px" opacity="0.25"></line><line x1="0" y1="308.45454545454544" x2="806.765625" y2="308.45454545454544" fill="rgb(0, 0, 0)" stroke="rgb(66, 66, 66)" stroke-width="1px" opacity="0.25"></line><line x1="0" y1="274.1818181818182" x2="806.765625" y2="274.1818181818182" fill="rgb(0, 0, 0)" stroke="rgb(66, 66, 66)" stroke-width="1px" opacity="0.25"></line><line x1="0" y1="239.9090909090909" x2="806.765625" y2="239.9090909090909" fill="rgb(0, 0, 0)" stroke="rgb(66, 66, 66)" stroke-width="1px" opacity="0.25"></line><line x1="0" y1="205.63636363636363" x2="806.765625" y2="205.63636363636363" fill="rgb(0, 0, 0)" stroke="rgb(66, 66, 66)" stroke-width="1px" opacity="0.25"></line><line x1="0" y1="171.36363636363637" x2="806.765625" y2="171.36363636363637" fill="rgb(0, 0, 0)" stroke="rgb(66, 66, 66)" stroke-width="1px" opacity="0.25"></line><line x1="0" y1="137.0909090909091" x2="806.765625" y2="137.0909090909091" fill="rgb(0, 0, 0)" stroke="rgb(66, 66, 66)" stroke-width="1px" opacity="0.25"></line><line x1="0" y1="102.81818181818181" x2="806.765625" y2="102.81818181818181" fill="rgb(0, 0, 0)" stroke="rgb(66, 66, 66)" stroke-width="1px" opacity="0.25"></line><line x1="0" y1="68.54545454545453" x2="806.765625" y2="68.54545454545453" fill="rgb(0, 0, 0)" stroke="rgb(66, 66, 66)" stroke-width="1px" opacity="0.25"></line><line x1="0" y1="34.27272727272729" x2="806.765625" y2="34.27272727272729" fill="rgb(0, 0, 0)" stroke="rgb(66, 66, 66)" stroke-width="1px" opacity="0.25"></line><line x1="0" y1="0" x2="806.765625" y2="0" fill="rgb(0, 0, 0)" stroke="rgb(66, 66, 66)" stroke-width="1px" opacity="0.25"></line></g></g></g><g><g><line x1="0" y1="171.36363636363637" x2="806.765625" y2="171.36363636363637" fill="rgb(0, 0, 0)" stroke="rgb(153, 153, 153)" stroke-width="1.5px"></line></g></g><g><g><line x1="57.62611607142857" y1="0" x2="57.62611607142857" y2="377" fill="rgb(0, 0, 0)" stroke="rgb(153, 153, 153)" stroke-width="1.5px"></line></g></g><g><g><g><g><g><path stroke="rgb(255, 112, 67)" stroke-width="2px" d="M58.617285267857135,246.782358342951L59.032193303571425,321.5078310533003L59.118632477678574,275.01088904980605L60.30573046875,344.75280425765294L60.565047991071424,275.0348937270032L60.830128124999995,241.41100174822432L61.417914508928575,304.44705667677914L62.25925580357143,332.72975579143883L63.53855558035715,273.7104894293448L64.14939241071428,235.39471028634145L64.44904821428571,218.53806994961892L64.95039542410714,202.81763932030427L65.79173671875,193.51302522414437L66.02800379464286,187.7513950310432L66.2354578125,185.26975251637484L66.32765959821428,182.6154793005602L66.54663883928572,220.13250704499472L66.64460323660714,206.73181821921875L68.80558258928572,193.89419651026364L68.92083482142857,186.56703831043146L72.04993292410715,183.5357117069801L72.47636618303571,179.9259914973821L73.14482912946428,181.3468637724634L73.23126830357143,191.7719111055971L73.28313180803572,189.22020393681308L75.39224765625,182.71524420576068L76.30274029017858,193.42490778154675L76.44104296875,254.46647481888556L78.1755890625,223.0589802214174L78.37151785714286,211.20109188511546L78.68269888392857,201.38139921761388L78.76337544642857,194.70822938033274L80.18674051339286,187.52440013312744L80.80910256696428,183.06391382688128L81.30468716517856,193.3830192471144L81.37383850446429,194.2637502447641L81.71959520089285,190.98800237517662L81.98467533482143,184.59560907057585L82.56669910714285,182.83354942751117L83.92667544642858,179.56811632150865L85.47105535714286,176.94369780846858L86.95780915178572,175.96952052322706L87.22288928571429,176.81725145366852L87.51678247767857,174.89505895740507L87.59169642857142,175.79965935705326L87.94897834821428,178.5289483174273L88.13914453125,176.4998940824187L88.52523950892856,179.16797471577976L89.0553997767857,185.4501724416352L90.28283604910715,237.69832028447306L91.23366696428572,214.10366725130228L91.42959575892857,197.5864499855627L91.50450970982143,189.98883984758658L92.09229609375001,182.00338544605034L92.18449787946429,179.33191332551206L92.50720412946428,239.7129935541901L92.99702611607142,214.24116935589976L93.49837332589286,200.53858446141066L93.80955435267857,190.8870584194326L94.12649799107142,193.2833208282488L94.32818939732142,185.29784254553442L95.48071171875,183.24116233107594L96.4084921875,181.202782926239L96.52374441964287,179.95913286623366L97.10000558035715,176.8610820688481L97.49762578125,236.18701690599292L97.91253381696428,212.62558585590375L98.27557834821428,197.49970716019584L99.4223380580357,197.29886344184726L100.47689598214286,246.13662806821563L100.63824910714285,221.55712601362555L101.67551919642858,203.29255535449104L102.17110379464286,201.0720164973848L102.5399109375,200.9767725454701L103.64633236607143,201.7585287816322L104.43004754464285,193.10944177833986L105.40392890624999,185.88122067835425L106.88492008928571,184.638980994881L106.91949575892858,231.84963472397052L107.28830290178571,210.70468941273478L107.52456997767858,197.71831306364538L107.72626138392859,191.1106890530643L107.89913973214286,184.03392400635283L108.06049285714286,181.27555731796292L108.19879553571428,179.5368466581506L108.21032075892857,175.35834876835145L108.78081930803572,174.64620260894173L109.82385200892857,225.21381824505255L110.3655375,204.8566269473006L110.9417986607143,192.36821703114003L111.16654051339285,238.7237395559532L111.37399453125,213.84991604934282L111.55839810267857,198.94568597160233L112.64176908482142,190.54903142202278L113.5926,183.40423893267038L113.82886707589284,179.43167853929526L114.31292645089286,178.2417160739667L114.48580479910716,175.94861285402467L114.64139531250001,180.86769615341044L114.77393537946428,229.13504284075012L114.95833895089285,205.75227486582355L115.09664162946429,237.79941180559143L115.13121729910715,217.4020861009108L115.61527667410714,200.27833215967533L115.77086718749999,189.304988209428L115.94950814732144,184.6170806914371L116.35289095982144,180.31334631473274L117.2230453125,176.92570035657823L117.81659430803572,177.5187551658679L117.89150825892858,178.72499003314223L118.23726495535715,177.15399285328155L118.95759140625,181.22512648589475L118.96911662946428,177.75453588221166L119.32639854910714,175.66581558944452L119.42436294642857,172.94362700996524L121.1473838169643,174.88423204898567L121.69483191964285,220.23801747868114L122.27109308035715,202.1163020470176L122.92226819196428,190.03307778594046L123.28531272321428,235.1741509484641L125.73442265624999,210.9568717103943L126.01102801339285,235.91478723300148L126.93304587053571,210.25048438816674L127.21541383928572,198.34077544346908L128.598440625,189.07670546126909L128.81741986607142,185.44419622958688L129.0709747767857,183.4086734321935L129.0825,179.641101601576L129.52045848214286,218.8383172442375L130.857384375,201.74338623686506L131.96956841517857,189.27237008478568L131.99261886160716,184.72197149559022L132.21736071428572,185.69384137236298L134.29190089285714,181.29590670288448L134.77596026785713,219.00354239042744L135.5481502232143,202.20297629832007L135.70950334821427,191.56330679034454L136.13017399553573,221.29328538812717L136.23966361607143,238.4694934607705L136.26847667410715,211.10861608633542L137.1616814732143,197.33691364191912L137.43252421875,187.11286753839386L138.13556283482143,181.78846154254535L138.1874263392857,178.06302737685792L138.56775870535714,213.54625401489318L139.38604955357144,198.47777644222222L139.4897765625,187.382086710105L139.82977064732142,191.4260496612281L140.38298136160714,184.33740942288958L142.01956305803571,181.21281619782056L142.59582421874998,186.73789866145245L143.20666104910714,182.73608066360177L143.281575,178.61154962958003L144.17477979910714,177.54809505193458L144.43985993303573,175.30462253170626L144.46867299107143,180.9679175800256L144.77985401785716,182.27159856908915L145.13137332589284,177.47927408580745L146.20321908482143,176.35278335337878L147.58048325892858,176.71370062323888L147.74183638392856,173.73376410996764L151.21669118303572,172.79578200560502L152.08684553571428,182.58112551439817L154.63391986607144,180.81067754751942L154.8183234375,178.02645243197762L154.91628783482142,202.70700878828814L155.05459051339287,190.4817357987006L155.28509497767857,182.41160612620135L156.2820267857143,187.59162989942018L156.3223650669643,179.56077495163441L157.1060802455357,176.3208681994045L157.86098236607143,174.2761645219055L158.83486372767857,182.13695777686402L159.2324839285714,180.27146852750758L159.80298247767857,177.92779453015922L161.38193805803573,195.87844209340628L162.05040100446428,186.7314843804736L162.09650189732145,182.82250288996963L162.11955234375,181.78086399982874L162.14260279017856,178.87512887769154L163.68698270089286,202.61362631010215L164.1249411830357,199.5312639125039L165.72694720982142,187.75380199023996L165.76152287946428,183.29226985721053L165.93440122767856,179.7093856309928L166.56252589285714,177.20721749538643L167.74386127232142,180.3793178782133L167.76691171875,177.72788118716772L168.32012243303572,179.01076318051798L168.95400970982143,178.04546039896132L169.28824118303572,176.84957241698078L170.0028050223214,198.8773705975162L170.26212254464286,186.97899413672044L170.67126796875,182.55123555798778L171.96209296875,184.16951506914546L172.42886450892857,177.42802798277702L172.87258560267858,173.88681711495585L175.71931573660714,173.6991394617489L176.2091377232143,172.18280004393858L176.4396421875,173.11330021707028L176.6009953125,174.62485839909093L177.2579330357143,175.52004186704136L177.72470457589287,187.00247838394108L178.45655625,196.7856742640294L178.5199449776786,187.6206267811793L178.8484138392857,182.0012700908689L178.940615625,181.96878645748654L179.38433671875,181.13786137630635L180.1795771205357,176.89025497388354L180.43313203124998,175.03054727326014L182.53648526785713,177.24828569622036L184.76661595982142,174.92693387916043L185.33711450892858,171.35318943328957L186.1726931919643,170.86514782360481L188.4489247767857,176.7115733244008L190.57532845982143,174.95512554388614L190.77701986607144,183.40043297847572L192.5058033482143,176.57390652288365L192.51156595982144,174.1450077484754L193.04748883928573,172.85239062223533L193.56036127232142,174.53174066856272L198.10706183035714,174.17909384949772L198.63145948660713,172.19370594782256L198.6545099330357,170.5516363744242L199.98567321428573,171.46976178112536L200.0663497767857,168.90387669217154L200.29685424107143,167.80861624683425L200.7002370535714,170.7345812873517L200.78667622767856,169.21960218711993L201.33412433035716,169.08810303198604L201.63954274553572,170.5314012577861L201.9968246651786,172.60040444520402L202.33681875000002,169.02838952880563L203.12629654017854,169.56321067623446L204.2500058035714,169.968187506423L205.43134118303573,170.2414066267925L205.74252220982143,170.95575945348136L205.81167354910716,174.04438657127537L206.97572109375,169.17434265901278L207.04487243303572,166.69050763675622L208.96958470982142,169.50911219559993L209.20008917410715,170.81656979521387L209.62652243303572,164.3195593933859L209.88007734375,164.75404250207043L211.17666495535715,161.78406997006996L211.44750770089286,159.55938642340385L212.15630892857143,164.13770659844022L213.29730602678572,166.82829373996879L213.38374520089286,167.54997342231906L213.8159410714286,169.0573131293131L214.99151383928572,168.88432246957476L215.83285513392858,165.30125655242358L216.2189501116071,165.57637653547746L216.82402433035713,155.7967615486169L217.78061785714286,161.33817930188414L218.01688493303573,154.11621418291494L218.36840424107143,158.70262299036753L219.01381674107145,163.58131852907132L219.23855859374999,166.20575545895323L219.56702745535716,156.44086751542875L223.5547546875,161.6509429344406L224.5804995535714,163.9104832754654L224.64965089285712,153.53522403343888L226.2343690848214,156.69999301686508L226.52826227678574,161.5601824358598L227.56553236607144,161.53868587753152L227.99772823660712,165.2085260814703L228.314671875,167.13552652064803L228.40687366071427,167.3425344283051L228.64314073660714,167.96743000833195L229.25974017857143,168.3204176005927L229.53058292410714,168.24886587692004L229.62854732142858,169.04314799404125L229.7783752232143,151.5840544458388L230.35463638392855,140.6321982037249L230.82140792410712,130.8784609343976L230.89055926339284,145.05344355809729L230.96547321428574,153.96117520017432L232.23324776785716,143.70739172677185L232.42341395089286,152.68064311566127L234.5555802455357,139.45566309662507L235.6447138392857,149.90268626573425L235.80030435267858,153.23585494708487L236.03080881696428,134.7874864068606L236.07690970982145,148.38929619505603L236.30165156249998,132.4022897365205L237.67315312499997,142.68746859621805L238.43381785714288,149.31801171553667L238.6297466517857,157.65858494813762L239.76498113839287,135.79091894651043L240.07039955357146,148.62899435864273L241.4649515625,156.38277345664406L241.55715334821426,158.05331155087632L241.7588447544643,164.20418100689048L241.89138482142857,165.43166019638892L242.11036406249997,166.43991162124857L244.95133158482145,163.9457778096521L246.70316551339286,140.40195005093688L246.7780794642857,125.50109477976308L246.78384207589284,139.2383974947999L247.22756316964285,119.39887751388099L247.86145044642856,138.4709557707326L249.40006774553572,150.21403966873007L250.14344464285716,158.92258013282057L251.83188984375,161.77639508258875L252.4196762276786,165.0875911593694L252.77119553571427,131.06540309539076L252.8979729910714,147.04776645914916L256.2287625,154.63609393047108L259.02362912946427,160.55737796947898L259.0351543526786,129.98578724977153L259.1273561383929,143.27871782493838L260.1242879464286,114.30959635103545L260.5680090401786,134.33603444136972L261.4900268973214,148.38590705859426L261.99137410714286,119.09947393375391L262.0662880580357,135.91493004270856L262.49272131696426,148.80658487818087L262.65407444196427,118.50233368392202L263.3744008928571,98.80680438515789L264.57878671875,119.39260898441061L264.780478125,100.48709357779126L267.96720234375,126.21065615166854L268.60685223214284,141.91975786280955L269.0793863839286,152.91037766759806L270.1858078125,160.7153463658405L270.1973330357143,165.77670169570146L270.2146208705357,128.55489788176743L270.28377220982145,140.35728565566293L270.81969508928574,151.64211553714384L271.2173152901786,154.8897465353656L271.2979918526786,161.81010150486736L271.5112084821429,164.11992715616637L271.8915408482143,166.61755766945305L273.71252611607144,164.68306447005781L274.72674575892853,156.50043709567547L275.15894162946427,139.3007692376077L275.4989357142857,141.84867380896642L276.24231261160713,109.589265353828L278.82972522321427,133.35328983814298L278.83548783482144,147.20035348815193L278.95650267857144,151.00796408208237L279.41174899553573,160.1173997254113L281.2442594866071,163.787873793127L281.44018828125,161.87123937236723L281.67645535714286,163.773157853767L281.7801823660714,164.01243433031885L282.5120340401786,163.9843999403433L283.73947031250003,118.31960750460016L285.11673448660713,138.45419189762706L285.75638437500004,147.99431777515625L286.4709482142857,152.83284760229415L288.3034587053572,159.10630628178276L288.7644676339286,107.11153664327061L289.13327477678575,89.13912798516334L289.4905566964286,117.31226491171459L289.56547064732143,87.93400377790587L290.0091917410714,106.75581433727795L290.0437674107143,117.57984919806988L290.5278267857143,138.65192822802467L291.242390625,88.01720208063585L291.68611171875,113.89398712390309L292.70033136160714,135.15862237098548L292.74643225446425,138.76093017529902L293.02303761160715,144.67033640468446L293.55896049107145,101.82868835958982L294.31386261160714,121.57896673334976L294.3369130580357,139.5095827623859L296.04840870535713,142.5766998360981L296.6189072544643,95.62762795608002L296.9819517857143,74.88656836189374L297.01076484375,62.96534057546366L297.1548301339286,106.19831991499971L298.34192812500004,79.00250718559433L299.14869375,112.38464888560866L299.47139999999996,133.21915865301492L299.7249549107143,148.1727331968402L300.3934178571429,149.94862241904738L300.41070569196427,150.47003770785378L302.31236752232144,105.62296308769167L302.73880078124995,131.80104520517438L304.58283649553573,91.87226155581058L304.8421540178571,84.25213776178892L305.13604720982147,118.9023040706597L306.21365558035717,84.36428247790715L306.74957845982146,112.1787578481723L307.1241482142857,122.64378805074467L308.6109020089286,121.5320444036002L308.9393708705357,140.66754807444718L309.8959643973214,143.56922020375475L310.48951339285713,142.67987847457L312.6504927455357,153.91996350638777L312.8118458705357,160.6491514049659L313.19217823660716,148.9995643015644L313.27285479910717,104.86111052918083L313.8491159598214,111.39720665064948L313.9701308035714,133.79751778602733L314.18911004464286,144.66550977134784L315.2782436383929,154.82456566978848L315.35315758928573,159.94509171760245L315.38773325892856,115.21670130408772L315.56637421875,126.239850846706L316.8053357142857,91.04891313808395L319.1622438616072,113.69579004094251L319.40427354910713,83.00149940409324L319.9978225446429,112.96837777244974L320.2340896205357,125.34540755891106L321.3059353794643,140.05543370895836L324.2852055803571,150.1266210492664L325.54145491071426,110.29666835266002L326.2214430803571,81.47020575680195L327.83497433035717,111.82833916619498L327.95022656249995,134.27234895280594L328.56682600446425,89.47174549783766L328.7339417410715,57.403207088741645L328.83190613839287,49.22963545708023L328.8549565848214,97.31475158393913L328.94715837053576,74.67089824706093L329.1142741071429,92.51480037290808L329.38511685267855,119.96041942496109L329.4946064732143,79.37834492779271L330.2206955357143,115.19412584258286L330.4742504464286,136.7806145122511L331.61524754464284,131.94358563184463L331.98981729910713,147.5345624652326L332.07049386160713,151.14134293263075L332.9464108258928,150.77711615941422L334.2257106026786,157.46833015617267L335.32060680803573,150.31291396228937L335.65483828124997,157.09715622018308L336.4500786830357,146.67071120148134L337.17040513392857,134.51770728840478L337.8907315848214,142.79876366081808L338.24225089285716,153.6223184799783L338.36326573660716,155.61455370090204L339.0893547991072,155.17451582039473L340.5300077008929,113.0064747288313L340.94491573660713,135.3365920192293L341.15236975446425,90.98891487284796L341.53846473214287,112.935423059229L341.80354486607143,79.55324334858784L342.7774262276786,62.567556194255694L343.9760494419643,102.96606558800228L344.03943816964284,109.63741553133471L344.32756875,83.52225895569715L344.97298125,113.4652287878914L345.5319545758929,130.39720547674764L345.8143225446429,146.5767009573337L347.2607380580357,150.94934721374904L348.66681529017853,152.73738453591324L349.2315512276786,152.41011142306385L349.4390052455357,158.60580468703475L349.77323671875,154.85353422879135L352.0609935267857,150.0052054122082L356.1121094866071,146.33707474379602L356.8785368303571,154.4246939044635L356.9131125,156.81294708969298L357.11480390625,159.08572358717868L357.35683359375,158.0793108460328L358.60155770089284,160.0756982449577L358.79748649553574,109.42695261618621L359.3103589285714,128.16508263594045L359.37951026785714,140.44546214176714L359.58120167410715,146.9863237425243L360.3879672991071,156.60105273234902L360.4340681919643,162.540278343563L360.9757536830357,165.5582841593055L361.11981897321425,123.03812171850588L362.8543650669643,142.05943309073766L363.5170654017857,153.62081016487224L364.5082345982143,160.00054152560764L366.63463828125003,150.85093085297552L367.71224665178573,153.93240872318893L368.70341584821426,155.16375984794925L369.0434099330357,157.681121688993L369.65424676339285,153.2780303575897L371.4464189732143,157.50033563870377L372.2186089285714,156.93695438504227L373.2213033482143,152.07310363910415L374.94432421875,149.968072835207L375.02500078125,103.54102898166398L375.26126785714285,127.97021321211294L375.42262098214286,139.49207278339125L375.47448448660714,151.47439407054327L376.07379609375,94.7591657502983L376.6846329241071,73.138375116017L377.44529765625,42.50909954359817L377.94664486607144,41.228734384361985L378.19443716517856,91.39644870015847L378.7073095982143,122.69385549966937L379.5832265625,93.57297263485133L380.2286390625,118.43135587705342L380.3957547991071,132.30606871005884L381.0930308035714,113.63340217352285L381.54251450892855,125.46558917232215L382.0092860491071,138.49207815993185L383.0811318080357,149.0357349143418L383.1041822544643,147.8720711865312L384.9021170758929,156.1305226340573L385.70312008928573,150.92680029696493L385.85871060267857,157.3212371314704L386.47531004464287,155.94833120433057L388.4691736607143,160.66312347048154L388.6939155133928,163.47656757864624L390.6589660714286,154.8667093376929L391.26980290178574,160.5651151914746L391.53488303571424,164.18578723025786L391.73081183035714,161.17574759283775L392.83723325892856,134.82801931764337L394.14534609375,147.77082547920514L394.19144698660716,156.9918841371283L394.43347667410717,153.08545111105005L395.40159542410714,156.86148314388058L395.6320998883929,158.3486733183352L396.06429575892855,159.41189948313865L396.2717497767857,159.88351392902447L396.84224832589285,161.20402671179593L397.9486697544643,152.22963629463345L400.4150675223214,159.24979449463396L400.80692511160714,161.1798060388769L403.38857511160717,164.47883910494207L404.99634375,156.40285231328485L405.8664981026785,107.89799774272944L408.90339441964284,132.79023650595315L410.17116897321426,141.77793810024937L410.4074360491071,123.74633237919255L411.3697921875,139.60041023545458L411.4389435267857,151.82823507457584L413.3233175223215,42.52785097904948L413.4212819196428,84.126756910339L414.35482499999995,119.15625542296088L414.7293947544643,125.07717823324653L414.8504095982143,143.3867780540632L415.2076915178571,152.81306556110337L415.37480725446426,152.95031109680494L416.89037410714286,98.68060937647788L417.13240379464287,124.95086531377513L419.63337723214283,141.12170033506015L420.48624374999997,141.94911503857162L422.099775,151.55388811757547L423.94381071428575,158.28280897389445L424.2549917410714,110.46811220873296L424.62956149553565,124.7322464423385L425.88581082589286,87.43987168021134L426.95765658482145,120.17480120085501L429.3088021205357,140.05702371339962L429.8793006696429,137.9495704874725L430.0579416294643,142.95783705788654L431.5850337053572,147.09938483111202L431.7809625,154.8670447170266L434.0687193080357,160.1881971841227L434.33956205357146,143.88129965258125L434.5988795758929,153.37015483975264L434.76023270089286,143.57713576162857L435.4114078125,94.37246814687416L436.13749687499995,107.32949348910994L436.3564761160714,127.15883771861022L436.53511707589286,90.37473311767181L437.0422268973214,48.53772592351501L437.1401912946429,92.24475001444726L437.57238716517855,120.36207218426648L437.70492723214284,127.99243994918739L437.8835681919643,138.08179265631333L439.16863058035716,102.11689160053515L439.2838828125,125.97660267272346L439.364559375,143.0701248634871L439.6411647321429,144.55558370992907L440.8916514508928,96.02270268733882L441.6062152901785,126.74589875345416L441.7157049107143,142.35721345889291L441.78485624999996,153.51151368697393L441.8770580357143,160.36735677220548L442.2343399553572,162.77822784124686L445.08683270089284,165.0562112339451L445.3403876116071,144.38062819633296L446.66578828125,154.2526424229836L446.7349396205357,155.85622300067627L448.5271118303571,123.5802577816735L448.6769397321429,64.58956968587198L448.8959189732143,101.99781114052489L449.44912968750003,118.1700671885763L449.88132555803566,96.7492786276877L450.5670763392857,123.93588539657777L452.0077292410714,89.11896094764126L452.11145625,121.49846866508688L452.8663583705357,132.9228607872313L453.0507619419643,141.55289246859897L453.31007946428576,137.81451391799357L454.2436225446429,151.39723867386803L455.6266493303571,158.70393933729284L455.65546238839283,159.0577342244904L456.59476808035714,163.33610115540097L457.18255446428566,164.50718210028126L457.70695212053573,161.3055406028312L457.89711830357146,164.60758969886245L458.29473850446425,112.26277876161151L458.9343883928571,135.25523352294007L459.1360797991071,142.60624712087744L459.9831837053571,153.65807381419614L462.1326378348214,150.58037119669862L462.96245390625,122.64879969999718L463.08346874999995,141.53906112409763L464.39734419642855,146.9251327138318L464.42615725446433,147.88793534673837L464.6797121651786,143.64105280627635L464.75462611607145,146.32661233145978L465.27902377232147,150.03221532368056L466.05121372767854,108.4444636824008L466.4891722098214,107.61805973465356L466.5295104910714,116.59581502225521L466.8464541294643,129.06811190486587L467.23831171875,70.11938088137836L467.68779542410715,104.9452505505888L467.9586381696429,123.68669201181636L468.24676875,109.61681559438563L468.8230299107143,131.70483187150174L470.7707926339285,124.21186237973698L471.4507808035714,113.57261064739122L471.5717956473214,136.0787112099485L472.0904306919643,147.4356737072258L473.1219381696429,156.70862084243987L474.19954654017863,106.36988505207259L475.70358816964284,132.18660586007633L475.90527957589285,144.09275539448598L476.1069709821429,154.2733727449494L476.2567988839286,154.68975646002446L479.01132723214283,151.21674202076787L479.47233616071424,158.98271388797008L479.6913154017857,160.1355481714273L480.90722645089284,163.77687945557136L481.55263895089286,164.57988986095376L482.24991495535716,159.82106109580474L483.12583191964285,161.32811811042478L483.3966746651786,162.93490505218458L483.56955301339286,120.18313433768505L483.60989129464286,96.37955682775305L483.73090613839287,121.09551078566106L484.2553037946429,137.35469062458935L484.2668290178571,148.34375889032867L484.92376674107146,143.64464815923716L485.1657964285714,144.83758428627826L485.82273415178577,148.21696954898422L486.83695379464285,156.95239686141028L487.4823662946429,162.46779623724424L488.415909375,161.4094893448523L488.9979331473214,154.6849727761674L489.8507996651786,159.52877139652432L490.3809599330357,164.43233856498725L490.4558738839285,156.48107528032756L490.66332790178575,159.508696051403L490.8823071428571,108.01955664229423L491.0033219866072,61.86757618175432L491.94839029017857,104.7074687099085L492.36906093749997,94.11174101376469L492.68600457589287,124.75869414105381L493.0778621651786,140.9283173029195L493.3487049107143,136.4141160364925L493.7693755580357,138.61061474962543L495.35409375,143.32354149465053L495.61341127232146,153.75874968230028L496.8408475446428,101.0965968108894L496.84661015625,100.95127436516466L497.3479573660714,117.5806925282563L498.3909900669643,137.42220963150012L498.6445449776786,137.88783887371542L498.96725122767856,141.72843497206748L500.15434921875,136.7355748659642L500.9841652901785,150.26015214341874L501.41636116071425,108.11787456685737L501.5316133928572,124.77957229371434L502.18278850446427,142.85587061476232L504.5627470982143,137.3824136874387L504.8566402901786,150.13284062048743L505.99187477678566,156.74419669434724L506.8216908482143,157.24939480743532L507.455578125,109.56292900981633L507.62269386160716,123.40160953712648L507.93963750000006,140.18800528484797L508.1816671875,151.60422485846846L508.42945948660713,132.04138151708747L508.69453962053575,147.0443517817901L509.1209728794643,85.56170570685815L509.1382607142857,77.52177614295367L509.5474061383929,109.74443963014147L509.61655747767855,123.75380227795172L510.0890916294643,120.71339998027423L510.5097622767857,126.03900092011587L510.78636763392853,141.8976028836125L511.4029670758929,113.14499859762134L511.46059319196434,97.65110983195706L512.5151511160715,117.38174121100838L513.2181897321428,131.68297026926305L513.7252995535714,145.72382771910014L513.7310621651785,141.61735000115556L513.8981779017857,151.6828550381883L514.1978337053571,157.31353739563804L516.0649198660714,162.60440627964303L516.1974599330357,156.41909539465018L517.8570920758929,157.58985637342008L520.0699349330357,161.55688031332375L521.3607599330356,164.9081853753347L521.4760121651786,116.73989945096434L525.2159470982143,137.0299367512948L526.21287890625,144.55442224614487L526.5182973214286,98.7441983361457L526.9159175223214,127.11786050743169L527.9416623883928,94.60404824693057L528.55249921875,124.18663356574537L532.9378466517858,137.10596011436732L533.3700425223213,174.9985621248615L534.240196875,173.23796953175423L534.4707013392857,169.72002296813702L536.7872712053571,160.25091078683036L536.8967608258928,150.11801886478727L536.9370991071428,152.86685688439087L537.7899656249999,158.54462655683747L539.6628143973214,162.46419541798087L540.5041556919642,149.42678861309318L541.1322803571429,155.03729461172577L541.38007265625,161.33509045497553L541.62210234375,150.0218052273532L541.9102329241072,151.70350535126678L543.3047849330356,154.50064650410616L543.9559600446429,160.42537196916675L544.3362924107142,162.90783619849557L545.4311886160714,164.41283083793002L546.4223578125,159.30798773449183L546.4799839285715,160.97033556713663L546.6298118303572,165.10395651721632L547.6209810267858,162.45829574926353L548.1799543526786,165.65634859185883L549.8683995535714,144.2641368750638L550.0297526785714,154.43554448978992L550.5944886160714,158.72609100176302L550.8077052455358,163.6093607584387L550.9344827008929,163.83798768752948L551.3897290178571,151.3834655084694L551.9659901785714,159.12909378606258L552.0236162946429,159.6040655856024L554.4900140625,162.79939290083323L555.4927084821428,152.8163898742446L555.5272841517857,147.10610720945883L555.6367737723215,135.5480458952776L556.622180357143,146.343133486291L557.0025127232143,155.31673825318066L557.3367441964286,151.05477773750854L558.2068985491071,155.9985951255318L558.3624890625,157.9507227373563L558.6218065848213,160.58879996779223L559.411284375,132.86062714309543L559.9529698660714,145.77356891281036L560.8231242187501,106.91068427204705L562.2868275669642,132.4214623161423L562.9380026785715,140.51866691272335L563.5315516741072,152.4678003593844L563.5430768973215,155.74352487560935L563.5488395089285,159.46186320875185L564.2115398437501,153.5502901525904L565.2949108258929,156.99182452518127L566.0267625,154.6117953071498L567.9457121651786,156.71985762696124L569.5304303571428,158.7147842272776L572.5846145089286,144.55860219807644L573.0686738839286,152.4749847573169L574.8377956473214,156.15780162529188L576.514715625,161.6104239035934L577.0736889508929,155.66509723488952L577.2523299107144,160.97639547919638L577.3502943080357,122.03775943995036L578.9004368303572,133.39006055038934L578.9177246651785,109.4819442781207L579.5861876116072,120.61213870709788L579.6265258928572,121.74912265185998L580.9058256696428,135.06024665269487L580.9980274553571,143.29424310658496L581.4475111607143,145.53125515072745L581.7356417410714,146.95297117182406L581.9834340401786,152.68290303459855L582.48478125,106.2124756852833L584.4440691964286,126.33854683889325L584.9396537946428,130.84183554518611L586.2708170758929,146.87611639607616L586.9219921875,143.4521341015617L587.7460456473214,132.4364965198415L588.8639922991072,145.56737363447792L589.2443246651786,144.52892316528371L589.2500872767857,147.03284598124586L589.2789003348214,154.0138059406596L589.3192386160714,158.8474746460497L592.1141052455357,155.41721195770705L592.2581705357143,159.05464704739367L592.5290132812501,145.2784746298034L594.3154228794642,132.90616881774352L595.5947226562499,136.39051065843287L597.6692628348214,140.7959546272597L597.9228177455357,151.98024856991685L597.9689186383928,144.36300405306076L599.3404202008928,146.2611576758661L599.38652109375,129.21549070370858L600.2624380580356,120.94643465881958L600.5390434151786,100.8437184502101L601.4668238839286,128.35627991975204L602.0257972098215,140.99364872106068L602.1929129464286,149.10999601128407L602.9766281249999,155.7076514112027L603.4433996651785,151.8207568595723L604.3423670758929,115.56804282756866L605.0165926339286,137.5954715869505L605.558278125,147.96450284519233L606.4399577008928,150.12503695242123L607.6270556919643,145.2284681525651L609.0388955357143,137.3755565107685L609.2694,149.66921984597246L609.5575305803571,155.52760096678202L611.689696875,151.12798060736858L614.4845635044643,153.10610434758655L615.92521640625,156.11172893295932L616.6801185267858,151.7013702677124L616.7146941964286,157.86959615403288L619.27329375,160.13667033169085L621.24986953125,155.29291423625705L621.7915550223214,159.7474892758546L622.7366233258929,160.52232306311018L623.6183029017857,159.394849179552L623.8833830357142,159.43336665272855L624.23490234375,143.34539916422233L625.4681012276786,152.18967013901414L626.0789380580358,148.4506336347002L628.4185583705357,150.91774697020443L628.5165227678572,159.86277621324643L628.7124515625,159.46218307996534L628.8392290178572,137.5977188334639L629.0063447544643,130.9625956000606L629.3463388392857,115.08688131245113L630.0897157366072,137.06434678129364L630.5449620535715,150.17821812157854L630.7120777901786,155.78982772769453L633.6049088169643,161.58407150389993L633.8238880580358,161.60553473181326L635.2703035714286,163.58662990551366L635.9560543526785,153.6689692014092L636.3709623883929,156.10848347175107L637.6790752232143,159.77919020567583L638.1343215401786,155.53099810999996L638.474315625,157.5198267726606L638.5838052455357,201.65820204948056L639.2695560267857,161.8459935119593L640.2261495535714,149.55450280939058L640.6583454241072,156.3584834391744L641.4651110491071,152.73953489882066L642.5369568080357,133.56956452838156L643.0901675223214,134.5039677042892L643.3494850446428,136.91184455357052L643.7701556919643,78.86485717603433L645.7121558035715,113.61231843256822L646.34028046875,127.62574490808497L646.3690935267857,144.93574469389347L646.8358650669643,152.83978858408068L647.3948383928572,144.20782227209702L648.3456693080357,130.01456901245032L650.0053014508928,142.3621638401096L650.0571649553572,132.36121806502987L650.8812184151786,147.3702571273106L650.9042688616071,156.6718258336394L651.3710404017856,157.78702513080998L651.6879840401785,158.38338419441945L652.1662808035713,161.604511301328L652.5350879464286,130.03481757625133L653.5089693080357,146.26349514414295L654.1025183035714,155.7900928184464L655.3241919642857,154.77722683780743L656.2462098214286,120.09693833102254L656.4306133928571,107.11362380294591L656.4594264508928,98.56526104601649L657.8424532366072,126.02231539253573L658.2343108258929,134.87772794457243L658.6088805803572,147.9814879793317L658.8566728794643,152.0353839458243L658.8970111607143,151.5325811268274L658.9373494419643,145.09734734053623L659.3176818080357,152.41002820246183L659.6000497767857,147.96801448839386L661.2539193080357,141.85032789136727L661.9857709821429,139.46355422327917L662.5101686383929,152.2943239501444L663.1440559151786,159.87214029583387L663.5301508928571,163.37367877845526L664.1179372767857,165.1122499864807L664.4175930803572,139.97221606410966L665.2358839285715,128.05677042881555L665.7199433035714,109.13381923749175L666.1348513392857,120.01406511038832L666.2328157366071,132.65960316341207L666.8609404017857,124.63992999441624L667.0626318080358,140.44480396819068L667.2988988839286,132.71130079910506L668.169053236607,147.81793349642044L668.8893796875,143.68693308535669L669.6730948660714,139.96950051338996L670.26088125,141.29707783267003L670.4279969866071,89.27216183854023L670.5547744419642,86.65381610170368L671.1713738839286,167.0025298177161L671.2347626116072,148.47161271706787L671.3442522321429,140.00892060542714L672.6293146205356,122.73016631700273L673.6550594866071,137.51524186756092L674.0353918526786,153.93053102086057L674.4733503348215,153.63358041310897L674.6058904017857,154.53698925267048L674.6692791294643,138.87922120052806L674.7730061383928,116.54720199854842L674.8940209821428,134.5547914105049L675.908240625,136.40223686800925L676.6861931919643,136.79805566062262L676.7265314732143,148.13199818297252L677.4295700892857,157.44326278358926L677.8271902901786,161.70786381264847L678.5302289062499,138.8193490415397L678.7319203125,144.3434332927217L679.0661517857143,153.52741772314442L679.2275049107143,150.82882041815512L679.7115642857142,146.100496654857L680.3224011160714,155.44060263221033L680.3800272321429,161.39302616617366L681.5440747767857,141.83099705734801L682.9732024553572,131.37455961025222L686.557546875,140.64585936095554L686.9263540178572,153.07785450357127L688.6263244419642,150.33608384028196L688.8798793526785,157.97357391607022L690.0093512276786,150.1450654228621L691.0178082589285,148.22538896851665L691.6632207589286,153.99529783492855L691.7899982142857,146.36844360185822L692.3086332589286,105.46376415916178L693.3055650669643,126.54174638695439L693.8414879464286,138.26036745109133L694.3946986607143,97.38799651602055L694.7174049107143,116.23195033381778L697.1088887276786,129.41679607975178L697.3509184151786,140.8265961928284L698.5207285714285,149.38034881718744L698.8030965401786,151.0012259709432L699.0797018973215,153.95011029264896L699.2525802455357,148.17703683709948L699.30444375,154.88752168222686L700.7796723214285,159.32798160154636L702.0301590401787,163.01683277550023L702.8253994419644,154.9995514835929L703.0328534598215,145.62882546135606L703.17691875,145.15689630664318L704.6521473214286,141.14174652366543L704.7846873883929,150.42085606336363L704.8307882812501,149.86363151632517L704.9287526785714,100.82554967062609L705.47620078125,89.59845210573145L705.6202660714285,64.54100685470308L706.1043254464286,99.34111319873716L706.1907646205358,117.58078697663755L706.3060168526786,73.18786963582272L706.8016014508928,45.28957588527562L706.8073640625,62.33386952131097L708.5073344866072,91.6532258459764L709.9652752232143,104.30660591219343L711.1293227678572,128.8889230054071L711.4232159598214,141.77499545751897L714.2814713169643,102.10562988725998L715.4455188616072,129.51049688762137L715.7394120535714,144.03989097536842L716.6556672991071,154.6564137567139L716.7132934151786,161.30439031197602L717.6007356026786,164.42465707138112L717.8946287946428,164.06740193450682L718.9203736607143,160.47212008387743L718.9952876116072,164.36158536424415L719.0010502232143,155.4384868575291L719.3064686383929,157.31258413139642L719.3986704241071,157.40348726028762L721.9860830357143,141.53324008899398L722.3894658482143,138.2935615377492L722.4125162946428,140.98039647465143L722.7870860491072,140.83110747485657L722.8158991071429,146.94696654235358L723.2538575892858,153.7415354205182L723.9799466517857,160.31705941813166L724.1412997767858,164.74245614250506L724.9423027901786,157.5863186589805L726.9995551339285,155.08862675419286L727.0053177455356,159.81687133172386L727.5527658482142,163.36929642914183L728.4286828125,165.69273852161L728.9876561383929,159.02500489053173L729.5120537946428,162.5032851695513L729.5351042410715,165.34612880339648L730.2496680803572,168.12309503690477L732.7564041294643,166.98918296374882L733.3211400669643,162.1603154742166L733.8628255580358,163.5117259278183L734.1509561383929,122.968418369191" style="fill: none;" fill="none"></path></g></g></g></g><g opacity="0.2"><g><g><g><path stroke="rgb(255, 112, 67)" stroke-width="2px" d="M58.617285267857135,246.782358342951L59.032193303571425,366.34311467950994L59.118632477678574,230.37382472645152L60.30573046875,426.76929654208095L60.565047991071424,184.0111897381869L60.830128124999995,194.89705454046074L61.417914508928575,394.5896238014914L62.25925580357143,373.96620261452415L63.53855558035715,186.66853544755418L64.14939241071428,178.500243733146L64.44904821428571,193.40599793174053L64.95039542410714,179.32254326560283L65.79173671875,179.5864852593162L66.02800379464286,179.12023737473925L66.2354578125,181.550205821991L66.32765959821428,178.63594147595492L66.54663883928572,276.3921727128462L66.64460323660714,186.63418741399593L68.80558258928572,174.6397196292877L68.92083482142857,175.57697074196554L72.04993292410715,178.98888804695824L72.47636618303571,174.51152996236627L73.14482912946428,183.47814413244075L73.23126830357143,207.4093586106734L73.28313180803572,185.39266132007947L75.39224765625,172.9578323498639L76.30274029017858,209.489375742132L76.44104296875,346.02873166170986L78.1755890625,175.94776725595645L78.37151785714286,193.4142659343373L78.68269888392857,186.65186347267843L78.76337544642857,184.69847595214847L80.18674051339286,176.7486571199244L80.80910256696428,176.37318468700755L81.30468716517856,208.86167693398215L81.37383850446429,195.58484671852807L81.71959520089285,186.0743806214766L81.98467533482143,175.00701917301524L82.56669910714285,180.19045997272838L83.92667544642858,174.6699666734175L85.47105535714286,173.00707004417075L86.95780915178572,174.5082545965368L87.22288928571429,178.08884784871884L87.51678247767857,172.01177021384242L87.59169642857142,177.15655995629052L87.94897834821428,182.6228817575628L88.13914453125,173.45631273009562L88.52523950892856,183.17009566567162L89.0553997767857,194.87346903020685L90.28283604910715,316.070542047674L91.23366696428572,178.71168770183218L91.42959575892857,172.8106240870736L91.50450970982143,178.5924246406555L92.09229609375001,170.025203843767L92.18449787946429,175.3247051447088L92.50720412946428,330.2846138971502L92.99702611607142,176.0334330584786L93.49837332589286,179.98470711968162L93.80955435267857,176.40976935646754L94.12649799107142,196.87771444147282L94.32818939732142,173.31962512146342L95.48071171875,180.1561420093883L96.4084921875,178.14521381898362L96.52374441964287,178.0936577762257L97.10000558035715,172.21400587276977L97.49762578125,325.1759191617099L97.91253381696428,177.28343928077007L98.27557834821428,174.810889116634L99.4223380580357,196.99759786432438L100.47689598214286,319.3932750077681L100.63824910714285,184.68787293174051L101.67551919642858,175.89569936578923L102.17110379464286,197.74120821172542L102.5399109375,200.8339066175981L103.64633236607143,202.93116313587538L104.43004754464285,180.13581127340143L105.40392890624999,175.0388890283758L106.88492008928571,182.77562146967108L106.91949575892858,302.66561531760476L107.28830290178571,178.98727144588125L107.52456997767858,178.23874854001133L107.72626138392859,181.1992530371926L107.89913973214286,173.41877643628553L108.06049285714286,177.13800728537822L108.19879553571428,176.92878066843207L108.21032075892857,169.09060193365272L108.78081930803572,173.57798336982728L109.82385200892857,301.06524169921875L110.3655375,174.32084000067277L110.9417986607143,173.6356021568992L111.16654051339285,308.25702334317293L111.37399453125,176.5391807894273L111.55839810267857,176.58934085499155L112.64176908482142,177.95404959765347L113.5926,172.68705019864169L113.82886707589284,173.47283794923266L114.31292645089286,176.4567723759738L114.48580479910716,172.50895802411165L114.64139531250001,188.2463211024891L114.77393537946428,301.5360628717596L114.95833895089285,170.6781229034337L115.09664162946429,285.8701172152432L115.13121729910715,186.80609754388982L115.61527667410714,174.59270124782216L115.77086718749999,172.84497228405695L115.94950814732144,177.58521941445093L116.35289095982144,173.85774474967607L117.2230453125,171.84423141934656L117.81659430803572,178.40833737980236L117.89150825892858,180.53434233405375L118.23726495535715,174.79749708349053L118.95759140625,187.33182693481444L118.96911662946428,172.548649976687L119.32639854910714,172.53273515029386L119.42436294642857,168.86034414074635L121.1473838169643,177.79513960751618L121.69483191964285,288.26869562322446L122.27109308035715,174.9337288995223L122.92226819196428,171.90824139432473L123.28531272321428,302.8857606922497L125.73442265624999,174.63095285328953L126.01102801339285,273.35166051691226L126.93304587053571,171.75403012091465L127.21541383928572,180.4762120264227L128.598440625,175.18060048796914L128.81741986607142,179.99543238206346L129.0709747767857,180.35538923610343L129.0825,173.98974385564975L129.52045848214286,277.6341407082298L130.857384375,176.1009897258065L131.96956841517857,170.56584585666656L131.99261886160716,177.89637361179697L132.21736071428572,187.1516461875222L134.29190089285714,174.69900469866667L134.77596026785713,275.5649959217418L135.5481502232143,177.00212716015903L135.70950334821427,175.60380252838135L136.13017399553573,265.8882532848011L136.23966361607143,264.2338055697354L136.26847667410715,170.06730002468282L137.1616814732143,176.67935997529463L137.43252421875,171.7767983831059L138.13556283482143,173.80185254877264L138.1874263392857,172.47487612832677L138.56775870535714,266.7710939719461L139.38604955357144,175.8750600832159L139.4897765625,170.7385521119291L139.82977064732142,197.49199408791281L140.38298136160714,173.70444906538182L142.01956305803571,176.52592636021703L142.59582421874998,195.02552235690027L143.20666104910714,176.73335366682574L143.281575,172.4247530785474L144.17477979910714,175.9529131854664L144.43985993303573,171.9394137513638L144.46867299107143,189.46286015250467L144.77985401785716,184.22712005268443L145.13137332589284,170.29078736088493L146.20321908482143,174.66304725473577L147.58048325892858,177.255076528029L147.74183638392856,169.26385934006083L151.21669118303572,171.38880884906106L152.08684553571428,197.2591407775879L154.63391986607144,178.15500559720127L154.8183234375,173.85011475866492L154.91628783482142,239.72784332275393L155.05459051339287,172.14382631431926L155.28509497767857,170.30641161745245L156.2820267857143,195.36166555924848L156.3223650669643,167.5144925299558L157.1060802455357,171.46100807105952L157.86098236607143,171.2091090056571L158.83486372767857,193.92814765930174L159.2324839285714,177.4732346534729L159.80298247767857,174.41228353413666L161.38193805803573,222.8044134382768L162.05040100446428,173.0110478110747L162.09650189732145,176.95903065421365L162.11955234375,180.21840566461736L162.14260279017856,174.51652619448572L163.68698270089286,238.22137245871804L164.1249411830357,194.9077203161066L165.72694720982142,170.08760910684413L165.76152287946428,176.59997165766632L165.93440122767856,174.3350592916662L166.56252589285714,173.45396529197694L167.74386127232142,185.13746845245365L167.76691171875,173.7507261505994L168.32012243303572,180.93508617054331L168.95400970982143,176.5975062266263L169.28824118303572,175.05574044400996L170.0028050223214,231.9190678683194L170.26212254464286,169.13142944552683L170.67126796875,175.9095976898887L171.96209296875,186.596934335882L172.42886450892857,167.31579735322435L172.87258560267858,168.5750008132241L175.71931573660714,173.41762298193845L176.2091377232143,169.90829091722316L176.4396421875,174.50905047676778L176.6009953125,176.89219567212191L177.2579330357143,176.86281706896693L177.72470457589287,204.22613315929067L178.45655625,211.46046808416196L178.5199449776786,173.8730555569042L178.8484138392857,173.57223505540327L178.940615625,181.920061007413L179.38433671875,179.891473754536L180.1795771205357,170.5188453702493L180.43313203124998,172.2409857223251L182.53648526785713,180.57489333066073L184.76661595982142,171.44490615357054L185.33711450892858,165.99257276448338L186.1726931919643,170.13308540907772L188.4489247767857,185.4812115755948L190.57532845982143,172.32045387311413L190.77701986607144,196.06839413036002L192.5058033482143,166.33411683949558L192.51156595982144,170.5016595868631L193.04748883928573,170.9134649328752L193.56036127232142,177.05076573805374L198.10706183035714,173.65012362090025L198.63145948660713,169.21562409530983L198.6545099330357,168.0885320143266L199.98567321428573,172.84694989117708L200.0663497767857,165.0550490587408L200.29685424107143,166.1657255788283L200.7002370535714,175.12352884812788L200.78667622767856,166.9471335367723L201.33412433035716,168.89085429928522L201.63954274553572,172.6963485964862L201.9968246651786,175.70390922633084L202.33681875000002,163.6703671542081L203.12629654017854,170.36544239737773L204.2500058035714,170.57565275170586L205.43134118303573,170.65123530734667L205.74252220982143,172.02728869351475L205.81167354910716,178.67732724796645L206.97572109375,161.8692767906189L207.04487243303572,162.96475510337137L208.96958470982142,173.7370190338655L209.20008917410715,172.77775619463486L209.62652243303572,154.57404379064386L209.88007734375,165.4057671650973L211.17666495535715,157.32911117206922L211.44750770089286,156.22236110340467L212.15630892857143,171.00518686099488L213.29730602678572,170.8641744522615L213.38374520089286,168.63249294584446L213.8159410714286,171.31832268980418L214.99151383928572,168.62483647996729L215.83285513392858,159.92665767669678L216.2189501116071,165.9890565100583L216.82402433035713,141.1273390683261L217.78061785714286,169.65030593178489L218.01688493303573,143.28326650446112L218.36840424107143,165.58223620154644L219.01381674107145,170.89936183712697L219.23855859374999,170.14241085377606L219.56702745535716,141.79353560014204L223.5547546875,169.46605606295847L224.5804995535714,167.29979378700259L224.64965089285712,137.97233517039908L226.2343690848214,161.4471464920044L226.52826227678574,168.85046656435185L227.56553236607144,161.50644104003905L227.99772823660712,170.7132863873785L228.314671875,170.02602717941457L228.40687366071427,167.65304628979075L228.64314073660714,168.90477337837217L229.25974017857143,168.84989898898385L229.53058292410714,168.14153829141097L229.62854732142858,170.23457116972315L229.7783752232143,125.39541412353516L230.35463638392855,124.20441384055395L230.82140792410712,116.24785503040663L230.89055926339284,166.31591749364682L230.96547321428574,167.32277266328987L232.23324776785716,128.32671651666814L232.42341395089286,166.1405201989954L234.5555802455357,119.61819306807085L235.6447138392857,165.5732210193981L235.80030435267858,158.23560796911065L236.03080881696428,107.11493359652434L236.07690970982145,168.79201087734916L236.30165156249998,108.42178004871714L237.67315312499997,158.11523688576438L238.43381785714288,159.26382639451464L238.6297466517857,170.16944479703903L239.76498113839287,102.9894199440696L240.07039955357146,167.88610747684132L241.4649515625,168.013442103646L241.55715334821426,160.55911869222467L241.7588447544643,173.43048519091172L241.89138482142857,167.27287898063662L242.11036406249997,167.952288758538L244.95133158482145,160.2045770922574L246.70316551339286,105.08620841286401L246.7780794642857,103.14981187300249L246.78384207589284,159.8443515673551L247.22756316964285,89.63959754250266L247.86145044642856,167.07907315601L249.40006774553572,167.82866551572624L250.14344464285716,171.98539082895627L251.83188984375,166.057117507241L252.4196762276786,170.0543852745403L252.77119553571427,80.03212099942292L252.8979729910714,171.02131150478667L256.2287625,166.01858513745395L259.02362912946427,169.43930402799083L259.0351543526786,84.1284011702104L259.1273561383929,163.21811368768863L260.1242879464286,70.85591414018113L260.5680090401786,164.37569157687102L261.4900268973214,169.46071598443118L261.99137410714286,75.16982424649325L262.0662880580357,161.1381142061407L262.49272131696426,168.14406713138928L262.65407444196427,73.04595689253372L263.3744008928571,69.26351043701172L264.57878671875,150.2713158832897L264.780478125,72.12882046786221L267.96720234375,164.79600001248448L268.60685223214284,165.48341042952103L269.0793863839286,169.39630737478083L270.1858078125,172.42279941320416L270.1973330357143,173.36873469049283L270.2146208705357,72.72219216086648L270.28377220982145,158.06086731650612L270.81969508928574,168.56936035936528L271.2173152901786,159.7611930326982L271.2979918526786,172.19063395911996L271.5112084821429,167.5846656331149L271.8915408482143,170.36400343938308L273.71252611607144,161.781324670965L274.72674575892853,144.22649603410198L275.15894162946427,113.50126745050602L275.4989357142857,145.67053066600454L276.24231261160713,61.200152671120385L278.82972522321427,168.99932656461542L278.83548783482144,167.97094896316528L278.95650267857144,156.71937997297806L279.41174899553573,173.78155319040474L281.2442594866071,169.29358489470047L281.44018828125,158.9962877412276L281.67645535714286,166.62603557586667L281.7801823660714,164.3713490451466L282.5120340401786,163.94234835537995L283.73947031250003,49.822418850985436L285.11673448660713,168.65606848716735L285.75638437500004,162.3045065914501L286.4709482142857,160.09064234300092L288.3034587053572,168.51649430101565L288.7644676339286,29.119382185502477L289.13327477678575,62.1805149980025L289.4905566964286,159.57197030154143L289.56547064732143,43.86661207719282L290.0091917410714,134.9885301763361L290.0437674107143,133.8159014892578L290.5278267857143,170.26004677295683L291.242390625,12.065112859552539L291.68611171875,152.70916468880395L292.70033136160714,167.05557524160906L292.74643225446425,144.16439188176935L293.02303761160715,153.53444574876266L293.55896049107145,37.566216291947796L294.31386261160714,151.2043842939897L294.3369130580357,166.40550680594012L296.04840870535713,147.17737544666636L296.6189072544643,25.20402013605291L296.9819517857143,43.774978970614335L297.01076484375,45.08349889581855L297.1548301339286,171.04778892430392L298.34192812500004,38.208788091486156L299.14869375,162.45786143563012L299.47139999999996,164.4709233041243L299.7249549107143,170.6030950125781L300.3934178571429,152.61245625235816L300.41070569196427,151.25216064106337L302.31236752232144,38.352351157448496L302.73880078124995,171.06816838139838L304.58283649553573,31.979086081764937L304.8421540178571,72.82195207075641L305.13604720982147,170.8775535339659L306.21365558035717,32.55725008877839L306.74957845982146,153.90047090357L307.1241482142857,138.34133335460314L308.6109020089286,119.86442893288351L308.9393708705357,169.37080358071762L309.8959643973214,147.92172839771618L310.48951339285713,141.3458658807928L312.6504927455357,170.78009105411442L312.8118458705357,170.7429332528331L313.19217823660716,131.52518364646215L313.27285479910717,38.65342987060545L313.8491159598214,121.20135083285247L313.9701308035714,167.3979844890941L314.18911004464286,160.9674977493286L315.2782436383929,170.0631495174495L315.35315758928573,167.62588078932328L315.38773325892856,48.12411568381568L315.56637421875,142.77457516063342L316.8053357142857,38.26250657515092L319.1622438616072,147.6661053952304L319.40427354910713,36.960063448819234L319.9978225446429,157.91869532498444L320.2340896205357,143.91095223860307L321.3059353794643,162.12047293402932L324.2852055803571,165.23340205972843L325.54145491071426,50.551739307750374L326.2214430803571,38.2305118630149L327.83497433035717,157.36553928028454L327.95022656249995,167.93836363272234L328.56682600446425,22.27084031538531L328.7339417410715,9.300399475097645L328.83190613839287,36.96927800958807L328.8549565848214,169.44242577422747L328.94715837053576,40.70511824174359L329.1142741071429,119.28065356167879L329.38511685267855,161.12884800304064L329.4946064732143,18.505233182040122L330.2206955357143,168.91779721476814L330.4742504464286,169.16034751675346L331.61524754464284,124.68804231123492L331.98981729910713,170.92102771531452L332.07049386160713,156.551513633728L332.9464108258928,150.2307759995894L334.2257106026786,167.50515115131034L335.32060680803573,139.5797896714644L335.65483828124997,167.27351960702376L336.4500786830357,131.03104367342863L337.17040513392857,116.28820141878995L337.8907315848214,155.22034821943802L338.24225089285716,169.85765070871872L338.36326573660716,158.60290653228762L339.0893547991072,154.5144589996338L340.5300077008929,49.754413091486164L340.94491573660713,168.83176795482638L341.15236975446425,24.467399153275913L341.53846473214287,145.8551853388006L341.80354486607143,29.479973782626075L342.7774262276786,37.08902546275745L343.9760494419643,163.56382967862217L344.03943816964284,119.64444044633343L344.32756875,44.34952409224076L344.97298125,158.37968353618277L345.5319545758929,155.79517051003197L345.8143225446429,170.84594417821276L347.2607380580357,157.508316598372L348.66681529017853,155.41944051915948L349.2315512276786,151.91920175378974L349.4390052455357,167.89934458299118L349.77323671875,149.22512854142622L352.0609935267857,142.73271218733356L356.1121094866071,140.83487874117765L356.8785368303571,166.5561226454648L356.9131125,160.39532686753708L357.11480390625,162.49488833340735L357.35683359375,156.56969173431398L358.60155770089284,163.07027934334496L358.79748649553574,33.453834173029115L359.3103589285714,156.27227766557172L359.37951026785714,158.86603140050715L359.58120167410715,156.79761614366012L360.3879672991071,171.0231462170861L360.4340681919643,171.44911676038396L360.9757536830357,170.08529288291933L361.11981897321425,59.25787805730648L362.8543650669643,170.5914001490853L363.5170654017857,170.96287577607416L364.5082345982143,169.57013856671074L366.63463828125003,137.12651484402744L367.71224665178573,158.55462552850895L368.70341584821426,157.0107865350897L369.0434099330357,161.45716445055876L369.65424676339285,146.6733933604847L371.4464189732143,163.83379356037486L372.2186089285714,156.09188250454991L373.2213033482143,144.7773275201971L374.94432421875,146.81052662936122L375.02500078125,33.900463201349424L375.26126785714285,164.61398955778645L375.42262098214286,156.77486214030873L375.47448448660714,169.44787600127134L376.07379609375,9.68632326993074L376.6846329241071,40.70718916459516L377.44529765625,-3.4348138150301866L377.94664486607144,39.30818664550783L378.19443716517856,166.6480201738531L378.7073095982143,169.63996569893575L379.5832265625,49.89164833762429L380.2286390625,155.71893074035646L380.3957547991071,153.11813795956698L381.0930308035714,85.62440236871892L381.54251450892855,143.21386967052115L382.0092860491071,158.0318116413463L383.0811318080357,164.85122004595672L383.1041822544643,146.12657559481536L384.9021170758929,168.5181998053464L385.70312008928573,143.12121679132633L385.85871060267857,166.91289238322867L386.47531004464287,153.88897231362085L388.4691736607143,167.73531186970797L388.6939155133928,167.6967337408933L390.6589660714286,141.95192197626287L391.26980290178574,169.11272397214717L391.53488303571424,169.61679528843274L391.73081183035714,156.66068813670765L392.83723325892856,95.30642690485175L394.14534609375,167.18503472154794L394.19144698660716,170.82347212401302L394.43347667410717,147.2258015719327L395.40159542410714,162.5255311931263L395.6320998883929,160.5794585800171L396.06429575892855,161.0067387303439L396.2717497767857,160.59093559785322L396.84224832589285,163.18479588595304L397.9486697544643,138.7680506688898L400.4150675223214,169.7800317946347L400.80692511160714,164.07482335524122L403.38857511160717,169.42738870403983L404.99634375,144.288872125799L405.8664981026785,35.140715886896295L408.90339441964284,170.12859465078873L410.17116897321426,155.2594904916937L410.4074360491071,96.69892379760742L411.3697921875,163.38152701984754L411.4389435267857,170.16997233325787L413.3233175223215,-121.42272516424003L413.4212819196428,146.52511580727315L414.35482499999995,171.70050319189374L414.7293947544643,133.95856244867497L414.8504095982143,170.8511777852882L415.2076915178571,166.9524968216636L415.37480725446426,153.1561794003573L416.89037410714286,17.27605679598721L417.13240379464287,164.356249219721L419.63337723214283,165.37795286698773L420.48624374999997,143.1902370938388L422.099775,165.9610477360812L423.94381071428575,168.37619025837293L424.2549917410714,38.746067060990754L424.62956149553565,146.1284477927468L425.88581082589286,31.501309537020592L426.95765658482145,169.27719548182054L429.3088021205357,169.88035748221657L429.8793006696429,134.78839064858178L430.0579416294643,150.47023691350765L431.5850337053572,153.31170649095014L431.7809625,166.5185345458984L434.0687193080357,168.16992588476703L434.33956205357146,119.42095335526899L434.5988795758929,167.60343762050974L434.76023270089286,128.88760714444248L435.4114078125,20.56546672474256L436.13749687499995,126.7650315024636L436.3564761160714,156.90285406286065L436.53511707589286,35.19857621626419L437.0422268973214,-14.217784867720184L437.1401912946429,157.8052861508456L437.57238716517855,162.53805543899537L437.70492723214284,139.4379915965687L437.8835681919643,153.21582171700217L439.16863058035716,48.16954001686788L439.2838828125,161.76616928100586L439.364559375,168.71040814963254L439.6411647321429,146.78377197959205L440.8916514508928,23.223381153453463L441.6062152901785,172.83069285262712L441.7157049107143,165.774185517051L441.78485624999996,170.24296402909536L441.8770580357143,170.65112140005286L442.2343399553572,166.39453444480898L445.08683270089284,168.4731863229925L445.3403876116071,113.36725363991475L446.66578828125,169.0606637629596L446.7349396205357,158.26159386721525L448.5271118303571,75.16630995316939L448.6769397321429,-23.896462457830282L448.8959189732143,158.1101733225042L449.44912968750003,142.42845126065342L449.88132555803566,64.61809578635477L450.5670763392857,164.71579554991288L452.0077292410714,36.89357427423649L452.11145625,170.0677302412553L452.8663583705357,150.05944897044787L453.0507619419643,154.4979399906505L453.31007946428576,132.20694609208542L454.2436225446429,171.77132580767977L455.6266493303571,169.66399033243007L455.65546238839283,159.58842655528673L456.59476808035714,169.75365155176684L457.18255446428566,166.2638035176017L457.70695212053573,156.50307835665618L457.89711830357146,169.56066334290938L458.29473850446425,33.7455623557351L458.9343883928571,169.74391566493293L459.1360797991071,153.6327675177834L459.9831837053571,170.23581385417418L462.1326378348214,145.96381727045232L462.96245390625,80.75144245494496L463.08346874999995,169.87445326024837L464.39734419642855,155.00424009843306L464.42615725446433,149.33213929609818L464.6797121651786,137.27072899558326L464.75462611607145,150.35495161923495L465.27902377232147,155.5906198120117L466.05121372767854,46.062836220481195L466.4891722098214,106.37845381303266L466.5295104910714,130.06244795365768L466.8464541294643,147.77655722878197L467.23831171875,-18.30371565385299L467.68779542410715,157.18405505440452L467.9586381696429,151.79885420365767L468.24676875,88.5120009682395L468.8230299107143,164.83685628717598L470.7707926339285,112.97240814208986L471.4507808035714,97.61373304887253L471.5717956473214,169.83786205378445L472.0904306919643,164.47111745314166L473.1219381696429,170.61804154526104L474.19954654017863,30.861781366521644L475.70358816964284,170.91168707208203L475.90527957589285,161.9519796961004L476.1069709821429,169.54429877064445L476.2567988839286,155.3143320326372L479.01132723214283,146.007220361883L479.47233616071424,170.63167168877342L479.6913154017857,161.8647995966131L480.90722645089284,169.23887638178738L481.55263895089286,165.78440546902743L482.24991495535716,152.6828179480813L483.12583191964285,163.58870363235474L483.3966746651786,165.34508546482434L483.56955301339286,56.05547826593573L483.60989129464286,60.67419056285512L483.73090613839287,158.1694417225231L484.2553037946429,161.74346038298177L484.2668290178571,164.82736128893768L484.92376674107146,136.59598206259986L485.1657964285714,146.62698847683993L485.82273415178577,153.2860474430431L486.83695379464285,170.05553783004936L487.4823662946429,170.74089530099522L488.415909375,159.82202900626444L488.9979331473214,144.5981979231401L489.8507996651786,166.79446932705966L490.3809599330357,171.78768931768155L490.4558738839285,144.5541803533381L490.66332790178575,164.0501272080161L490.8823071428571,30.785847528631034L491.0033219866072,-7.360394509055411L491.94839029017857,168.9673075021397L492.36906093749997,78.21814946954899L492.68600457589287,170.72912383198738L493.0778621651786,165.1827520457181L493.3487049107143,129.6428141368519L493.7693755580357,141.90536281932484L495.35409375,150.39293161218816L495.61341127232146,169.41156196377491L496.8408475446428,22.103367503773068L496.84661015625,100.73329069657761L497.3479573660714,142.52481977289375L498.3909900669643,167.18448528636586L498.6445449776786,138.58628273703835L498.96725122767856,147.4893291195956L500.15434921875,129.24628470680932L500.9841652901785,170.54701805960048L501.41636116071425,44.90445820201525L501.5316133928572,149.77211888399992L502.18278850446427,169.97031809633427L504.5627470982143,129.1722282964533L504.8566402901786,169.25848102006043L505.99187477678566,166.66123080513694L506.8216908482143,158.00719197706744L507.455578125,38.0332303133878L507.62269386160716,144.1596303280917L507.93963750000006,165.36759890643035L508.1816671875,168.72855421889912L508.42945948660713,102.69711650501597L508.69453962053575,169.54880717884413L509.1209728794643,-6.6622634055397825L509.1382607142857,65.46188179709696L509.5474061383929,158.07843486092307L509.61655747767855,144.7678462496671L510.0890916294643,116.15279653375798L510.5097622767857,134.02740232987838L510.78636763392853,165.6855058288574L511.4029670758929,70.01609216863459L511.46059319196434,74.41027668346058L512.5151511160715,146.9776882795854L513.2181897321428,153.13481385664505L513.7252995535714,166.7851138938557L513.7310621651785,135.45763342423874L513.8981779017857,166.7811125937375L514.1978337053571,165.75956093181264L516.0649198660714,170.54070960565045L516.1974599330357,147.14112906716088L517.8570920758929,159.34599784157496L520.0699349330357,167.5074162231792L521.3607599330356,169.9351429683512L521.4760121651786,44.48747056440875L525.2159470982143,167.46499270179052L526.21287890625,155.84115048842L526.5182973214286,30.028862471147L526.9159175223214,169.6783537643606L527.9416623883928,45.833329856178956L528.55249921875,168.5605115439675L532.9378466517858,156.48494993730023L533.3700425223213,231.8374651406028L534.240196875,170.59708064209332L534.4707013392857,164.4431031227112L536.7872712053571,146.0472425148704L536.8967608258928,134.91868098172273L536.9370991071428,156.99011391379614L537.7899656249999,167.06128106550736L539.6628143973214,168.343548709696L540.5041556919642,129.8706784057617L541.1322803571429,163.45305360967464L541.38007265625,170.7817842198502L541.62210234375,133.05187738591974L541.9102329241072,154.22605553713714L543.3047849330356,158.69635823336515L543.9559600446429,169.31246016675777L544.3362924107142,166.6315325424888L545.4311886160714,166.6703227970817L546.4223578125,151.65072307933463L546.4799839285715,163.46385731610386L546.6298118303572,171.30438794233584L547.6209810267858,158.48980459733443L548.1799543526786,170.45342785575173L549.8683995535714,112.17581929987128L550.0297526785714,169.6926559118791L550.5944886160714,165.16191076972268L550.8077052455358,170.93426539345222L550.9344827008929,164.18092808116566L551.3897290178571,132.70168223987926L551.9659901785714,170.74753620245238L552.0236162946429,160.3165232849121L554.4900140625,167.59238387367944L555.4927084821428,137.84188533436168L555.5272841517857,138.54068321228027L555.6367737723215,118.2109539240057L556.622180357143,162.53576487281103L557.0025127232143,168.77714540351522L557.3367441964286,144.66183696400034L558.2068985491071,163.41432120756667L558.3624890625,160.87891415509313L558.6218065848213,164.54591581344604L559.411284375,91.26836790605024L559.9529698660714,165.14298156738283L560.8231242187501,48.61635731090198L562.2868275669642,170.6876293822852L562.9380026785715,152.664473807595L563.5315516741072,170.39150052937592L563.5430768973215,160.65711164994676L563.5488395089285,165.03937070846555L564.2115398437501,144.6829305683483L565.2949108258929,162.1541260840676L566.0267625,151.04175148010256L567.9457121651786,159.88195110667834L569.5304303571428,161.70717412775213L572.5846145089286,123.32432915427468L573.0686738839286,164.34955859617753L574.8377956473214,161.6820269272544L576.514715625,169.7893573210456L577.0736889508929,146.74710723183372L577.2523299107144,168.94334284565667L577.3502943080357,63.629805381081326L578.9004368303572,150.4185122160478L578.9177246651785,73.61976986971769L579.5861876116072,137.30743035056375L579.6265258928572,123.45459856900301L580.9058256696428,155.0269326539473L580.9980274553571,155.6452377874201L581.4475111607143,148.88677321694112L581.7356417410714,149.08554520346902L581.9834340401786,161.2778008287603L582.48478125,36.50683466131037L584.4440691964286,156.52765356930817L584.9396537946428,137.59676860462537L586.2708170758929,170.92753767241132L586.9219921875,138.31616065979003L587.7460456473214,115.9130401472612L588.8639922991072,165.26368930643252L589.2443246651786,142.97124746149234L589.2500872767857,150.7887302051891L589.2789003348214,164.48524587978014L589.3192386160714,166.09797770413485L592.1141052455357,150.2718179251931L592.2581705357143,164.5107996819236L592.5290132812501,124.61421600341795L594.3154228794642,114.34771009965377L595.5947226562499,141.61702341946688L597.6692628348214,147.40412058049984L597.9228177455357,168.75668948390268L597.9689186383928,132.93713727777654L599.3404202008928,149.10838811007415L599.38652109375,103.64699024547228L600.2624380580356,108.54285059148614L600.5390434151786,70.6896441372958L601.4668238839286,169.62512212406506L602.0257972098215,159.94970192302358L602.1929129464286,161.28451694661922L602.9766281249999,165.60413451108064L603.4433996651785,145.9904150321267L604.3423670758929,61.188971779563225L605.0165926339286,170.63661472602325L605.558278125,163.51804973255506L606.4399577008928,153.3658381132646L607.6270556919643,137.883614952781L609.0388955357143,125.59618904807351L609.2694,168.10971484877848L609.5575305803571,164.31517264799635L611.689696875,144.5285500682484L614.4845635044643,156.0732899579135L615.92521640625,160.62016581101852L616.6801185267858,145.08583226984197L616.7146941964286,167.12193498351357L619.27329375,163.5372815981778L621.24986953125,148.02728009310636L621.7915550223214,166.42935183525086L622.7366233258929,161.68457374399358L623.6183029017857,157.70363835421475L623.8833830357142,159.49114286249335L624.23490234375,119.21344793146307L625.4681012276786,165.45607660120186L626.0789380580358,142.84207887822933L628.4185583705357,154.6184169734608L628.5165227678572,173.28032007780942L628.7124515625,158.86129338004372L628.8392290178572,104.80102246371185L629.0063447544643,121.00991074995562L629.3463388392857,91.27330988103694L630.0897157366072,170.0305449845574L630.5449620535715,169.8490251320059L630.7120777901786,164.2072421368686L633.6049088169643,170.27543716820804L633.8238880580358,161.63772957368332L635.2703035714286,166.55827266606417L635.9560543526785,138.79247814525257L636.3709623883929,159.76775487726385L637.6790752232143,165.28525030656294L638.1343215401786,149.15870996648616L638.474315625,160.50306976665152L638.5838052455357,267.8657649647106L639.2695560267857,102.12768070567736L640.2261495535714,131.11726675553754L640.6583454241072,166.56445438385012L641.4651110491071,147.31111208829012L642.5369568080357,104.81460897272284L643.0901675223214,135.90557246815075L643.3494850446428,140.52365982749248L643.7701556919643,-8.205623890269894L645.7121558035715,165.73351031736894L646.34028046875,148.64588462136007L646.3690935267857,170.90074437260625L646.8358650669643,164.69585441936147L647.3948383928572,131.25987280412153L648.3456693080357,108.7246891229803L650.0053014508928,160.88355608159847L650.0571649553572,117.35979940241032L650.8812184151786,169.88381572073155L650.9042688616071,170.62417889313267L651.3710404017856,159.4598240765658L651.6879840401785,159.27792278983378L652.1662808035713,166.43620196169073L652.5350879464286,82.68027698863638L653.5089693080357,170.60651149598033L654.1025183035714,170.0799893299016L655.3241919642857,153.257927866849L656.2462098214286,68.07650557084517L656.4306133928571,87.63865201083098L656.4594264508928,85.74271691062235L657.8424532366072,167.20789691231468L658.2343108258929,148.1608467726274L658.6088805803572,167.63712803147055L658.8566728794643,158.11622789556327L658.8970111607143,150.77837689833208L658.9373494419643,135.44449666109952L659.3176818080357,163.37904949535022L659.6000497767857,141.3049939172918L661.2539193080357,132.67379799582744L661.9857709821429,135.88339372114703L662.5101686383929,171.54047854044222L663.1440559151786,171.23886481436816L663.5301508928571,168.6259865023873L664.1179372767857,167.72010679851877L664.4175930803572,102.26216518055307L665.2358839285715,110.18360197587447L665.7199433035714,80.74939245050605L666.1348513392857,136.33443391973321L666.2328157366071,151.62791024294768L666.8609404017857,112.6104202409224L667.0626318080358,164.15211492885243L667.2988988839286,121.11104604547675L668.169053236607,170.47788254239342L668.8893796875,137.4904324687611L669.6730948660714,134.3933516554399L670.26088125,143.28844381159L670.4279969866071,11.234787847345528L670.5547744419642,82.72629749644888L671.1713738839286,287.5256003917347L671.2347626116072,120.67523706609552L671.3442522321429,127.3148824379661L672.6293146205356,96.81203488436611L673.6550594866071,159.69285519339823L674.0353918526786,178.5534647508101L674.4733503348215,153.18815450148148L674.6058904017857,155.89210251201283L674.6692791294643,115.39256912231447L674.7730061383928,83.04917319557882L674.8940209821428,161.5661755284396L675.908240625,139.1734050542658L676.6861931919643,137.3917838495428L676.7265314732143,165.13291196649723L677.4295700892857,171.41015968451444L677.8271902901786,168.10476535623724L678.5302289062499,104.48657688487661L678.7319203125,152.62955966949463L679.0661517857143,167.30339436877858L679.2275049107143,146.78092446067117L679.7115642857142,139.0080110099099L680.3224011160714,169.45076159824026L680.3800272321429,170.32166146711867L681.5440747767857,112.48795339410957L682.9732024553572,115.68990343960849L686.557546875,154.55280898701062L686.9263540178572,171.7258472174948L688.6263244419642,146.22342784534803L688.8798793526785,169.42980902975256L690.0093512276786,138.40230268304998L691.0178082589285,145.3458742869984L691.6632207589286,162.65016113454644L691.7899982142857,134.92816225225275L692.3086332589286,44.10674499511718L693.3055650669643,158.15871972864326L693.8414879464286,155.8382990472967L694.3946986607143,36.07944011341442L694.7174049107143,144.4978810605136L697.1088887276786,149.19406469865277L697.3509184151786,157.94129636244338L698.5207285714285,162.21097775372593L698.8030965401786,153.43254170157692L699.0797018973215,158.37343677520752L699.2525802455357,139.51742665377532L699.30444375,164.95324894991785L700.7796723214285,165.98867148052562L702.0301590401787,168.55010953643108L702.8253994419644,142.97362954573197L703.0328534598215,131.5727364280007L703.17691875,144.44900257457388L704.6521473214286,135.1190218491988L704.7846873883929,164.33952037291095L704.8307882812501,149.02779469576748L704.9287526785714,27.268426902077408L705.47620078125,72.75780575838958L705.6202660714285,26.954838978160513L706.1043254464286,151.54127271478825L706.1907646205358,144.9402976434881L706.3060168526786,6.598493624600494L706.8016014508928,3.4421352594549064L706.8073640625,87.90030997536398L708.5073344866072,135.6322603329745L709.9652752232143,123.28667601151899L711.1293227678572,165.76239864522762L711.4232159598214,161.1041041356867L714.2814713169643,42.601581531871446L715.4455188616072,170.61779738816347L715.7394120535714,165.83398210698908L716.6556672991071,170.58119792873208L716.7132934151786,171.27635514486917L717.6007356026786,169.10505721048875L717.8946287946428,163.53151922919534L718.9203736607143,155.07919730793344L718.9952876116072,170.19578328479417L719.0010502232143,142.0538390974565L719.3064686383929,160.12373004219748L719.3986704241071,157.5398419536244L721.9860830357143,117.72786933205346L722.3894658482143,133.434043710882L722.4125162946428,145.01064888000488L722.7870860491072,140.60717397516424L722.8158991071429,156.12075514359907L723.2538575892858,163.93338873776526L723.9799466517857,170.18034541455182L724.1412997767858,171.3805512290651L724.9423027901786,146.85211243369363L726.9995551339285,151.34208889701148L727.0053177455356,166.90923819802023L727.5527658482142,168.69793407526885L728.4286828125,169.17790166031233L728.9876561383929,149.02340444391425L729.5120537946428,167.72070558808065L729.5351042410715,169.61039425416428L730.2496680803572,172.28854438716712L732.7564041294643,165.28831485401503L733.3211400669643,154.91701423991813L733.8628255580358,165.53884160822088L734.1509561383929,62.15345703125002" style="fill: none;" fill="none"></path></g></g></g></g></g></g><g transform="translate(82, 377)" clip-path="url(#clip_1)"><clipPath id="clip_1"><rect width="806" height="23"></rect></clipPath><g><g><line x1="0" y1="0" x2="0" y2="5" style="visibility: inherit;" fill="rgb(0, 0, 0)" stroke="rgb(204, 204, 204)" stroke-width="1px"></line><line x1="57.62611607142857" y1="0" x2="57.62611607142857" y2="5" style="visibility: inherit;" fill="rgb(0, 0, 0)" stroke="rgb(204, 204, 204)" stroke-width="1px"></line><line x1="115.25223214285714" y1="0" x2="115.25223214285714" y2="5" style="visibility: inherit;" fill="rgb(0, 0, 0)" stroke="rgb(204, 204, 204)" stroke-width="1px"></line><line x1="172.8783482142857" y1="0" x2="172.8783482142857" y2="5" style="visibility: inherit;" fill="rgb(0, 0, 0)" stroke="rgb(204, 204, 204)" stroke-width="1px"></line><line x1="230.50446428571428" y1="0" x2="230.50446428571428" y2="5" style="visibility: inherit;" fill="rgb(0, 0, 0)" stroke="rgb(204, 204, 204)" stroke-width="1px"></line><line x1="288.1305803571429" y1="0" x2="288.1305803571429" y2="5" style="visibility: inherit;" fill="rgb(0, 0, 0)" stroke="rgb(204, 204, 204)" stroke-width="1px"></line><line x1="345.7566964285714" y1="0" x2="345.7566964285714" y2="5" style="visibility: inherit;" fill="rgb(0, 0, 0)" stroke="rgb(204, 204, 204)" stroke-width="1px"></line><line x1="403.3828125" y1="0" x2="403.3828125" y2="5" style="visibility: inherit;" fill="rgb(0, 0, 0)" stroke="rgb(204, 204, 204)" stroke-width="1px"></line><line x1="461.00892857142856" y1="0" x2="461.00892857142856" y2="5" style="visibility: inherit;" fill="rgb(0, 0, 0)" stroke="rgb(204, 204, 204)" stroke-width="1px"></line><line x1="518.6350446428572" y1="0" x2="518.6350446428572" y2="5" style="visibility: inherit;" fill="rgb(0, 0, 0)" stroke="rgb(204, 204, 204)" stroke-width="1px"></line><line x1="576.2611607142858" y1="0" x2="576.2611607142858" y2="5" style="visibility: inherit;" fill="rgb(0, 0, 0)" stroke="rgb(204, 204, 204)" stroke-width="1px"></line><line x1="633.8872767857142" y1="0" x2="633.8872767857142" y2="5" style="visibility: inherit;" fill="rgb(0, 0, 0)" stroke="rgb(204, 204, 204)" stroke-width="1px"></line><line x1="691.5133928571428" y1="0" x2="691.5133928571428" y2="5" style="visibility: inherit;" fill="rgb(0, 0, 0)" stroke="rgb(204, 204, 204)" stroke-width="1px"></line><line x1="749.1395089285714" y1="0" x2="749.1395089285714" y2="5" style="visibility: inherit;" fill="rgb(0, 0, 0)" stroke="rgb(204, 204, 204)" stroke-width="1px"></line><line x1="806.765625" y1="0" x2="806.765625" y2="5" style="visibility: inherit;" fill="rgb(0, 0, 0)" stroke="rgb(204, 204, 204)" stroke-width="1px"></line></g><g transform="translate(0, 8)"><text x="0" y="0" dx="0em" dy="0.95em" style="text-anchor: middle; visibility: hidden; font-family: Roboto, sans-serif; font-size: 12px; font-weight: 200;" fill="rgb(33, 33, 33)" stroke="none" stroke-width="1px">-10k</text><text x="57.62611607142857" y="0" dx="0em" dy="0.95em" style="text-anchor: middle; visibility: inherit; font-family: Roboto, sans-serif; font-size: 12px; font-weight: 200;" fill="rgb(33, 33, 33)" stroke="none" stroke-width="1px">0</text><text x="115.25223214285714" y="0" dx="0em" dy="0.95em" style="text-anchor: middle; visibility: inherit; font-family: Roboto, sans-serif; font-size: 12px; font-weight: 200;" fill="rgb(33, 33, 33)" stroke="none" stroke-width="1px">10k</text><text x="172.8783482142857" y="0" dx="0em" dy="0.95em" style="text-anchor: middle; visibility: inherit; font-family: Roboto, sans-serif; font-size: 12px; font-weight: 200;" fill="rgb(33, 33, 33)" stroke="none" stroke-width="1px">20k</text><text x="230.50446428571428" y="0" dx="0em" dy="0.95em" style="text-anchor: middle; visibility: inherit; font-family: Roboto, sans-serif; font-size: 12px; font-weight: 200;" fill="rgb(33, 33, 33)" stroke="none" stroke-width="1px">30k</text><text x="288.1305803571429" y="0" dx="0em" dy="0.95em" style="text-anchor: middle; visibility: inherit; font-family: Roboto, sans-serif; font-size: 12px; font-weight: 200;" fill="rgb(33, 33, 33)" stroke="none" stroke-width="1px">40k</text><text x="345.7566964285714" y="0" dx="0em" dy="0.95em" style="text-anchor: middle; visibility: inherit; font-family: Roboto, sans-serif; font-size: 12px; font-weight: 200;" fill="rgb(33, 33, 33)" stroke="none" stroke-width="1px">50k</text><text x="403.3828125" y="0" dx="0em" dy="0.95em" style="text-anchor: middle; visibility: inherit; font-family: Roboto, sans-serif; font-size: 12px; font-weight: 200;" fill="rgb(33, 33, 33)" stroke="none" stroke-width="1px">60k</text><text x="461.00892857142856" y="0" dx="0em" dy="0.95em" style="text-anchor: middle; visibility: inherit; font-family: Roboto, sans-serif; font-size: 12px; font-weight: 200;" fill="rgb(33, 33, 33)" stroke="none" stroke-width="1px">70k</text><text x="518.6350446428572" y="0" dx="0em" dy="0.95em" style="text-anchor: middle; visibility: inherit; font-family: Roboto, sans-serif; font-size: 12px; font-weight: 200;" fill="rgb(33, 33, 33)" stroke="none" stroke-width="1px">80k</text><text x="576.2611607142858" y="0" dx="0em" dy="0.95em" style="text-anchor: middle; visibility: inherit; font-family: Roboto, sans-serif; font-size: 12px; font-weight: 200;" fill="rgb(33, 33, 33)" stroke="none" stroke-width="1px">90k</text><text x="633.8872767857142" y="0" dx="0em" dy="0.95em" style="text-anchor: middle; visibility: inherit; font-family: Roboto, sans-serif; font-size: 12px; font-weight: 200;" fill="rgb(33, 33, 33)" stroke="none" stroke-width="1px">100k</text><text x="691.5133928571428" y="0" dx="0em" dy="0.95em" style="text-anchor: middle; visibility: inherit; font-family: Roboto, sans-serif; font-size: 12px; font-weight: 200;" fill="rgb(33, 33, 33)" stroke="none" stroke-width="1px">110k</text><text x="749.1395089285714" y="0" dx="0em" dy="0.95em" style="text-anchor: middle; visibility: inherit; font-family: Roboto, sans-serif; font-size: 12px; font-weight: 200;" fill="rgb(33, 33, 33)" stroke="none" stroke-width="1px">120k</text><text x="806.765625" y="0" dx="0em" dy="0.95em" style="text-anchor: middle; visibility: hidden; font-family: Roboto, sans-serif; font-size: 12px; font-weight: 200;" fill="rgb(33, 33, 33)" stroke="none" stroke-width="1px">130k</text></g><line x1="0" y1="0" x2="806.765625" y2="0" fill="rgb(0, 0, 0)" stroke="rgb(204, 204, 204)" stroke-width="1px"></line></g></g></g></g></svg>